G04 #@! TF.GenerationSoftware,KiCad,Pcbnew,6.0.5-a6ca702e91~116~ubuntu20.04.1*
G04 #@! TF.CreationDate,2022-05-31T07:59:30+02:00*
G04 #@! TF.ProjectId,PZ1_Pico,505a315f-5069-4636-9f2e-6b696361645f,rev?*
G04 #@! TF.SameCoordinates,Original*
G04 #@! TF.FileFunction,Copper,L1,Top*
G04 #@! TF.FilePolarity,Positive*
%FSLAX46Y46*%
G04 Gerber Fmt 4.6, Leading zero omitted, Abs format (unit mm)*
G04 Created by KiCad (PCBNEW 6.0.5-a6ca702e91~116~ubuntu20.04.1) date 2022-05-31 07:59:30*
%MOMM*%
%LPD*%
G01*
G04 APERTURE LIST*
G04 #@! TA.AperFunction,ComponentPad*
%ADD10R,1.600000X1.600000*%
G04 #@! TD*
G04 #@! TA.AperFunction,ComponentPad*
%ADD11O,1.600000X1.600000*%
G04 #@! TD*
G04 #@! TA.AperFunction,ComponentPad*
%ADD12R,1.700000X1.700000*%
G04 #@! TD*
G04 #@! TA.AperFunction,ComponentPad*
%ADD13O,1.700000X1.700000*%
G04 #@! TD*
G04 #@! TA.AperFunction,ViaPad*
%ADD14C,0.800000*%
G04 #@! TD*
G04 #@! TA.AperFunction,Conductor*
%ADD15C,0.250000*%
G04 #@! TD*
G04 APERTURE END LIST*
D10*
X147320000Y-93980000D03*
D11*
X144780000Y-93980000D03*
X142240000Y-93980000D03*
X139700000Y-93980000D03*
X137160000Y-93980000D03*
X134620000Y-93980000D03*
X132080000Y-93980000D03*
X129540000Y-93980000D03*
X127000000Y-93980000D03*
X124460000Y-93980000D03*
X124460000Y-101600000D03*
X127000000Y-101600000D03*
X129540000Y-101600000D03*
X132080000Y-101600000D03*
X134620000Y-101600000D03*
X137160000Y-101600000D03*
X139700000Y-101600000D03*
X142240000Y-101600000D03*
X144780000Y-101600000D03*
X147320000Y-101600000D03*
D10*
X175260000Y-106685000D03*
D11*
X175260000Y-109225000D03*
X175260000Y-111765000D03*
X175260000Y-114305000D03*
X175260000Y-116845000D03*
X175260000Y-119385000D03*
X175260000Y-121925000D03*
X175260000Y-124465000D03*
X175260000Y-127005000D03*
X175260000Y-129545000D03*
X182880000Y-129545000D03*
X182880000Y-127005000D03*
X182880000Y-124465000D03*
X182880000Y-121925000D03*
X182880000Y-119385000D03*
X182880000Y-116845000D03*
X182880000Y-114305000D03*
X182880000Y-111765000D03*
X182880000Y-109225000D03*
X182880000Y-106685000D03*
D10*
X182880000Y-139720000D03*
D11*
X180340000Y-139720000D03*
X177800000Y-139720000D03*
X175260000Y-139720000D03*
X172720000Y-139720000D03*
X170180000Y-139720000D03*
X167640000Y-139720000D03*
X165100000Y-139720000D03*
X162560000Y-139720000D03*
X160020000Y-139720000D03*
X157480000Y-139720000D03*
X154940000Y-139720000D03*
X152400000Y-139720000D03*
X149860000Y-139720000D03*
X147320000Y-139720000D03*
X144780000Y-139720000D03*
X144780000Y-154960000D03*
X147320000Y-154960000D03*
X149860000Y-154960000D03*
X152400000Y-154960000D03*
X154940000Y-154960000D03*
X157480000Y-154960000D03*
X160020000Y-154960000D03*
X162560000Y-154960000D03*
X165100000Y-154960000D03*
X167640000Y-154960000D03*
X170180000Y-154960000D03*
X172720000Y-154960000D03*
X175260000Y-154960000D03*
X177800000Y-154960000D03*
X180340000Y-154960000D03*
X182880000Y-154960000D03*
D10*
X160020000Y-106685000D03*
D11*
X160020000Y-109225000D03*
X160020000Y-111765000D03*
X160020000Y-114305000D03*
X160020000Y-116845000D03*
X160020000Y-119385000D03*
X160020000Y-121925000D03*
X160020000Y-124465000D03*
X160020000Y-127005000D03*
X160020000Y-129545000D03*
X167640000Y-129545000D03*
X167640000Y-127005000D03*
X167640000Y-124465000D03*
X167640000Y-121925000D03*
X167640000Y-119385000D03*
X167640000Y-116845000D03*
X167640000Y-114305000D03*
X167640000Y-111765000D03*
X167640000Y-109225000D03*
X167640000Y-106685000D03*
D12*
X210820000Y-111760000D03*
D13*
X210820000Y-114300000D03*
X210820000Y-116840000D03*
X210820000Y-119380000D03*
D10*
X124455000Y-106680000D03*
D11*
X124455000Y-109220000D03*
X124455000Y-111760000D03*
X124455000Y-114300000D03*
X124455000Y-116840000D03*
X124455000Y-119380000D03*
X124455000Y-121920000D03*
X124455000Y-124460000D03*
X124455000Y-127000000D03*
X124455000Y-129540000D03*
X124455000Y-132080000D03*
X124455000Y-134620000D03*
X124455000Y-137160000D03*
X124455000Y-139700000D03*
X124455000Y-142240000D03*
X124455000Y-144780000D03*
X124455000Y-147320000D03*
X124455000Y-149860000D03*
X124455000Y-152400000D03*
X124455000Y-154940000D03*
X139695000Y-154940000D03*
X139695000Y-152400000D03*
X139695000Y-149860000D03*
X139695000Y-147320000D03*
X139695000Y-144780000D03*
X139695000Y-142240000D03*
X139695000Y-139700000D03*
X139695000Y-137160000D03*
X139695000Y-134620000D03*
X139695000Y-132080000D03*
X139695000Y-129540000D03*
X139695000Y-127000000D03*
X139695000Y-124460000D03*
X139695000Y-121920000D03*
X139695000Y-119380000D03*
X139695000Y-116840000D03*
X139695000Y-114300000D03*
X139695000Y-111760000D03*
X139695000Y-109220000D03*
X139695000Y-106680000D03*
D12*
X210820000Y-142240000D03*
D13*
X210820000Y-144780000D03*
X210820000Y-147320000D03*
X210820000Y-149860000D03*
X210820000Y-152400000D03*
X210820000Y-154940000D03*
D12*
X210820000Y-99060000D03*
D13*
X210820000Y-101600000D03*
X210820000Y-104140000D03*
X210820000Y-106680000D03*
D12*
X210820000Y-91440000D03*
D13*
X210820000Y-93980000D03*
D10*
X187960000Y-106680000D03*
D11*
X187960000Y-109220000D03*
X187960000Y-111760000D03*
X187960000Y-114300000D03*
X187960000Y-116840000D03*
X187960000Y-119380000D03*
X187960000Y-121920000D03*
X187960000Y-124460000D03*
X187960000Y-127000000D03*
X187960000Y-129540000D03*
X187960000Y-132080000D03*
X187960000Y-134620000D03*
X187960000Y-137160000D03*
X187960000Y-139700000D03*
X187960000Y-142240000D03*
X187960000Y-144780000D03*
X187960000Y-147320000D03*
X187960000Y-149860000D03*
X187960000Y-152400000D03*
X187960000Y-154940000D03*
X205740000Y-154940000D03*
X205740000Y-152400000D03*
X205740000Y-149860000D03*
X205740000Y-147320000D03*
X205740000Y-144780000D03*
X205740000Y-142240000D03*
X205740000Y-139700000D03*
X205740000Y-137160000D03*
X205740000Y-134620000D03*
X205740000Y-132080000D03*
X205740000Y-129540000D03*
X205740000Y-127000000D03*
X205740000Y-124460000D03*
X205740000Y-121920000D03*
X205740000Y-119380000D03*
X205740000Y-116840000D03*
X205740000Y-114300000D03*
X205740000Y-111760000D03*
X205740000Y-109220000D03*
X205740000Y-106680000D03*
D12*
X210820000Y-124460000D03*
D13*
X210820000Y-127000000D03*
X210820000Y-129540000D03*
X210820000Y-132080000D03*
X210820000Y-134620000D03*
X210820000Y-137160000D03*
D10*
X182880000Y-93980000D03*
D11*
X180340000Y-93980000D03*
X177800000Y-93980000D03*
X175260000Y-93980000D03*
X172720000Y-93980000D03*
X170180000Y-93980000D03*
X167640000Y-93980000D03*
X165100000Y-93980000D03*
X162560000Y-93980000D03*
X160020000Y-93980000D03*
X160020000Y-101600000D03*
X162560000Y-101600000D03*
X165100000Y-101600000D03*
X167640000Y-101600000D03*
X170180000Y-101600000D03*
X172720000Y-101600000D03*
X175260000Y-101600000D03*
X177800000Y-101600000D03*
X180340000Y-101600000D03*
X182880000Y-101600000D03*
D10*
X144780000Y-106685000D03*
D11*
X144780000Y-109225000D03*
X144780000Y-111765000D03*
X144780000Y-114305000D03*
X144780000Y-116845000D03*
X144780000Y-119385000D03*
X144780000Y-121925000D03*
X144780000Y-124465000D03*
X144780000Y-127005000D03*
X144780000Y-129545000D03*
X152400000Y-129545000D03*
X152400000Y-127005000D03*
X152400000Y-124465000D03*
X152400000Y-121925000D03*
X152400000Y-119385000D03*
X152400000Y-116845000D03*
X152400000Y-114305000D03*
X152400000Y-111765000D03*
X152400000Y-109225000D03*
X152400000Y-106685000D03*
D14*
X165998500Y-138550700D03*
X154472700Y-145640700D03*
X156583600Y-122958400D03*
X154332000Y-148280100D03*
X177629800Y-136474500D03*
X172184700Y-110049200D03*
X132616500Y-121920000D03*
X151310900Y-147554800D03*
X147856500Y-112890300D03*
X190441600Y-151107800D03*
X152129100Y-141677300D03*
X154341800Y-106806400D03*
X162933400Y-120655000D03*
X141249400Y-133442200D03*
X144991600Y-137099600D03*
X173759100Y-127836400D03*
X173877200Y-130308600D03*
X164642500Y-150299600D03*
X176293600Y-132724900D03*
X133070900Y-138282700D03*
X178032600Y-131901500D03*
X146057000Y-152400000D03*
X148473800Y-148434800D03*
X202438000Y-116840000D03*
X180848000Y-107701000D03*
X146304000Y-99568000D03*
X165608000Y-107701000D03*
X181863971Y-99568000D03*
X150368000Y-107701000D03*
X181864000Y-152908000D03*
X126487000Y-125476000D03*
X181863971Y-97493000D03*
X148293000Y-107701000D03*
X181864000Y-150833000D03*
X163533000Y-107701000D03*
X146304000Y-97493000D03*
X128519000Y-125476000D03*
X202438000Y-114765000D03*
X178773000Y-107701000D03*
D15*
X206021400Y-110345300D02*
X205740000Y-110345300D01*
X206865300Y-111189200D02*
X206021400Y-110345300D01*
X206865300Y-122678100D02*
X206865300Y-111189200D01*
X210011900Y-125824700D02*
X206865300Y-122678100D01*
X210820000Y-125824700D02*
X210011900Y-125824700D01*
X210820000Y-127000000D02*
X210820000Y-125824700D01*
X205740000Y-109220000D02*
X205740000Y-110345300D01*
X144780000Y-106685000D02*
X143654700Y-106685000D01*
X139695000Y-121920000D02*
X139695000Y-120794700D01*
X187960000Y-132080000D02*
X187960000Y-130954700D01*
X188241400Y-130954700D02*
X187960000Y-130954700D01*
X189085300Y-130110800D02*
X188241400Y-130954700D01*
X189085300Y-121376400D02*
X189085300Y-130110800D01*
X188358900Y-120650000D02*
X189085300Y-121376400D01*
X187632500Y-120650000D02*
X188358900Y-120650000D01*
X185051800Y-118069300D02*
X187632500Y-120650000D01*
X185051800Y-117404500D02*
X185051800Y-118069300D01*
X183222300Y-115575000D02*
X185051800Y-117404500D01*
X182349800Y-115575000D02*
X183222300Y-115575000D01*
X180824000Y-114049200D02*
X182349800Y-115575000D01*
X177093900Y-114049200D02*
X180824000Y-114049200D01*
X176213400Y-113168700D02*
X177093900Y-114049200D01*
X173861000Y-113168700D02*
X176213400Y-113168700D01*
X172953600Y-114076100D02*
X173861000Y-113168700D01*
X169491300Y-114076100D02*
X172953600Y-114076100D01*
X168089100Y-115478300D02*
X169491300Y-114076100D01*
X138569700Y-115478300D02*
X168089100Y-115478300D01*
X138569700Y-111241500D02*
X138569700Y-115478300D01*
X139321200Y-110490000D02*
X138569700Y-111241500D01*
X140131000Y-110490000D02*
X139321200Y-110490000D01*
X143654700Y-106966300D02*
X140131000Y-110490000D01*
X143654700Y-106685000D02*
X143654700Y-106966300D01*
X139413600Y-120794700D02*
X139695000Y-120794700D01*
X138569700Y-119950800D02*
X139413600Y-120794700D01*
X138569700Y-115478300D02*
X138569700Y-119950800D01*
X139695000Y-144780000D02*
X140820300Y-144780000D01*
X141270600Y-144329700D02*
X140820300Y-144780000D01*
X162081900Y-144329700D02*
X141270600Y-144329700D01*
X166226500Y-140185100D02*
X162081900Y-144329700D01*
X166226500Y-138778700D02*
X166226500Y-140185100D01*
X165998500Y-138550700D02*
X166226500Y-138778700D01*
X148962600Y-145640700D02*
X154472700Y-145640700D01*
X147283300Y-147320000D02*
X148962600Y-145640700D01*
X139695000Y-147320000D02*
X147283300Y-147320000D01*
X165389400Y-125590300D02*
X166514700Y-124465000D01*
X159215500Y-125590300D02*
X165389400Y-125590300D01*
X156583600Y-122958400D02*
X159215500Y-125590300D01*
X167640000Y-124465000D02*
X166514700Y-124465000D01*
X143654700Y-94172800D02*
X143654700Y-93980000D01*
X142722200Y-95105300D02*
X143654700Y-94172800D01*
X136630000Y-95105300D02*
X142722200Y-95105300D01*
X135890000Y-94365300D02*
X136630000Y-95105300D01*
X135890000Y-93593300D02*
X135890000Y-94365300D01*
X135125800Y-92829100D02*
X135890000Y-93593300D01*
X129095000Y-92829100D02*
X135125800Y-92829100D01*
X128270000Y-93654100D02*
X129095000Y-92829100D01*
X128270000Y-109641000D02*
X128270000Y-93654100D01*
X124736300Y-113174700D02*
X128270000Y-109641000D01*
X124455000Y-113174700D02*
X124736300Y-113174700D01*
X124455000Y-114300000D02*
X124455000Y-113174700D01*
X144780000Y-93980000D02*
X143654700Y-93980000D01*
X187960000Y-147320000D02*
X186834700Y-147320000D01*
X185874600Y-148280100D02*
X154332000Y-148280100D01*
X186834700Y-147320000D02*
X185874600Y-148280100D01*
X160020000Y-106685000D02*
X161145300Y-106685000D01*
X163685300Y-109225000D02*
X161145300Y-106685000D01*
X167640000Y-109225000D02*
X163685300Y-109225000D01*
X178925300Y-109225000D02*
X176385300Y-106685000D01*
X182880000Y-109225000D02*
X178925300Y-109225000D01*
X175260000Y-106685000D02*
X176385300Y-106685000D01*
X183609200Y-136474500D02*
X177629800Y-136474500D01*
X186834700Y-139700000D02*
X183609200Y-136474500D01*
X139976400Y-113174700D02*
X139695000Y-113174700D01*
X140820300Y-112330800D02*
X139976400Y-113174700D01*
X140820300Y-111559000D02*
X140820300Y-112330800D01*
X144298100Y-108081200D02*
X140820300Y-111559000D01*
X147647500Y-108081200D02*
X144298100Y-108081200D01*
X148004900Y-108438600D02*
X147647500Y-108081200D01*
X151262400Y-108438600D02*
X148004900Y-108438600D01*
X151659600Y-108041400D02*
X151262400Y-108438600D01*
X161371700Y-108041400D02*
X151659600Y-108041400D01*
X163230100Y-109899800D02*
X161371700Y-108041400D01*
X165257300Y-109899800D02*
X163230100Y-109899800D01*
X165772100Y-110414600D02*
X165257300Y-109899800D01*
X171819300Y-110414600D02*
X165772100Y-110414600D01*
X172184700Y-110049200D02*
X171819300Y-110414600D01*
X139695000Y-114300000D02*
X139695000Y-113174700D01*
X187960000Y-139700000D02*
X186834700Y-139700000D01*
X187960000Y-134620000D02*
X187960000Y-135745300D01*
X124455000Y-121920000D02*
X132616500Y-121920000D01*
X177565200Y-147554800D02*
X151310900Y-147554800D01*
X184150000Y-140970000D02*
X177565200Y-147554800D01*
X188298700Y-140970000D02*
X184150000Y-140970000D01*
X189085300Y-140183400D02*
X188298700Y-140970000D01*
X189085300Y-136589200D02*
X189085300Y-140183400D01*
X188241400Y-135745300D02*
X189085300Y-136589200D01*
X187960000Y-135745300D02*
X188241400Y-135745300D01*
X177800000Y-101600000D02*
X176674700Y-101600000D01*
X142240000Y-101600000D02*
X143365300Y-101600000D01*
X160020000Y-127005000D02*
X161145300Y-127005000D01*
X143365300Y-101881400D02*
X143365300Y-101600000D01*
X144365900Y-102882000D02*
X143365300Y-101881400D01*
X153328900Y-102882000D02*
X144365900Y-102882000D01*
X153622500Y-103175600D02*
X153328900Y-102882000D01*
X175380400Y-103175600D02*
X153622500Y-103175600D01*
X176674700Y-101881300D02*
X175380400Y-103175600D01*
X176674700Y-101600000D02*
X176674700Y-101881300D01*
X175055300Y-127005000D02*
X174134700Y-127005000D01*
X175055300Y-127005000D02*
X175260000Y-127005000D01*
X185709400Y-128414700D02*
X186834700Y-129540000D01*
X177795000Y-128414700D02*
X185709400Y-128414700D01*
X176385300Y-127005000D02*
X177795000Y-128414700D01*
X175260000Y-127005000D02*
X176385300Y-127005000D01*
X187960000Y-129540000D02*
X186834700Y-129540000D01*
X162270600Y-128130300D02*
X161145300Y-127005000D01*
X172225400Y-128130300D02*
X162270600Y-128130300D01*
X173350700Y-127005000D02*
X172225400Y-128130300D01*
X174134700Y-127005000D02*
X173350700Y-127005000D01*
X155224500Y-123334800D02*
X158894700Y-127005000D01*
X151730000Y-123334800D02*
X155224500Y-123334800D01*
X148059800Y-127005000D02*
X151730000Y-123334800D01*
X144780000Y-127005000D02*
X148059800Y-127005000D01*
X160020000Y-127005000D02*
X158894700Y-127005000D01*
X180335000Y-125874700D02*
X176385300Y-121925000D01*
X185709400Y-125874700D02*
X180335000Y-125874700D01*
X186834700Y-127000000D02*
X185709400Y-125874700D01*
X187960000Y-127000000D02*
X186834700Y-127000000D01*
X175260000Y-101600000D02*
X174134700Y-101600000D01*
X139700000Y-101600000D02*
X140825300Y-101600000D01*
X140825300Y-101318600D02*
X140825300Y-101600000D01*
X141669200Y-100474700D02*
X140825300Y-101318600D01*
X151558500Y-100474700D02*
X141669200Y-100474700D01*
X153809100Y-102725300D02*
X151558500Y-100474700D01*
X173290800Y-102725300D02*
X153809100Y-102725300D01*
X174134700Y-101881400D02*
X173290800Y-102725300D01*
X174134700Y-101600000D02*
X174134700Y-101881400D01*
X157769400Y-120799700D02*
X158894700Y-121925000D01*
X149570600Y-120799700D02*
X157769400Y-120799700D01*
X145905300Y-124465000D02*
X149570600Y-120799700D01*
X144780000Y-124465000D02*
X145905300Y-124465000D01*
X160020000Y-121925000D02*
X158894700Y-121925000D01*
X175822700Y-121925000D02*
X176385300Y-121925000D01*
X175822700Y-121925000D02*
X175260000Y-121925000D01*
X162270600Y-123050300D02*
X161145300Y-121925000D01*
X173009400Y-123050300D02*
X162270600Y-123050300D01*
X174134700Y-121925000D02*
X173009400Y-123050300D01*
X160020000Y-121925000D02*
X161145300Y-121925000D01*
X175260000Y-121925000D02*
X174134700Y-121925000D01*
X167640000Y-101600000D02*
X166514700Y-101600000D01*
X132080000Y-101600000D02*
X133205300Y-101600000D01*
X185709400Y-120794700D02*
X186834700Y-121920000D01*
X180335000Y-120794700D02*
X185709400Y-120794700D01*
X176385300Y-116845000D02*
X180335000Y-120794700D01*
X175260000Y-116845000D02*
X176385300Y-116845000D01*
X187960000Y-121920000D02*
X186834700Y-121920000D01*
X173009400Y-117970300D02*
X174134700Y-116845000D01*
X162270600Y-117970300D02*
X173009400Y-117970300D01*
X161145300Y-116845000D02*
X162270600Y-117970300D01*
X160020000Y-116845000D02*
X161145300Y-116845000D01*
X175260000Y-116845000D02*
X174134700Y-116845000D01*
X133205300Y-101417500D02*
X133205300Y-101600000D01*
X135785500Y-98837300D02*
X133205300Y-101417500D01*
X163968400Y-98837300D02*
X135785500Y-98837300D01*
X166514700Y-101383600D02*
X163968400Y-98837300D01*
X166514700Y-101600000D02*
X166514700Y-101383600D01*
X157769400Y-117970300D02*
X158894700Y-116845000D01*
X149860000Y-117970300D02*
X157769400Y-117970300D01*
X145905300Y-121925000D02*
X149860000Y-117970300D01*
X144780000Y-121925000D02*
X145905300Y-121925000D01*
X160020000Y-116845000D02*
X158894700Y-116845000D01*
X162270600Y-112890300D02*
X161145300Y-111765000D01*
X173009400Y-112890300D02*
X162270600Y-112890300D01*
X174134700Y-111765000D02*
X173009400Y-112890300D01*
X160020000Y-111765000D02*
X161145300Y-111765000D01*
X174697400Y-111765000D02*
X174134700Y-111765000D01*
X160020000Y-111765000D02*
X158894700Y-111765000D01*
X157769400Y-112890300D02*
X158894700Y-111765000D01*
X147856500Y-112890300D02*
X157769400Y-112890300D01*
X187960000Y-119380000D02*
X187960000Y-118254700D01*
X174697400Y-111765000D02*
X175260000Y-111765000D01*
X187678600Y-118254700D02*
X187960000Y-118254700D01*
X186834700Y-117410800D02*
X187678600Y-118254700D01*
X186834700Y-116627300D02*
X186834700Y-117410800D01*
X183097700Y-112890300D02*
X186834700Y-116627300D01*
X177510600Y-112890300D02*
X183097700Y-112890300D01*
X176385300Y-111765000D02*
X177510600Y-112890300D01*
X175260000Y-111765000D02*
X176385300Y-111765000D01*
X129540000Y-93980000D02*
X130665300Y-93980000D01*
X165100000Y-93980000D02*
X163974700Y-93980000D01*
X163974700Y-94261400D02*
X163974700Y-93980000D01*
X162230200Y-96005900D02*
X163974700Y-94261400D01*
X132409900Y-96005900D02*
X162230200Y-96005900D01*
X130665300Y-94261300D02*
X132409900Y-96005900D01*
X130665300Y-93980000D02*
X130665300Y-94261300D01*
X177022200Y-127005000D02*
X182880000Y-127005000D01*
X175883100Y-125865900D02*
X177022200Y-127005000D01*
X169904400Y-125865900D02*
X175883100Y-125865900D01*
X168765300Y-127005000D02*
X169904400Y-125865900D01*
X167640000Y-127005000D02*
X168765300Y-127005000D01*
X167640000Y-121925000D02*
X168765300Y-121925000D01*
X167640000Y-93980000D02*
X166514700Y-93980000D01*
X132080000Y-93980000D02*
X133205300Y-93980000D01*
X179007500Y-121925000D02*
X182880000Y-121925000D01*
X177868400Y-120785900D02*
X179007500Y-121925000D01*
X169904400Y-120785900D02*
X177868400Y-120785900D01*
X168765300Y-121925000D02*
X169904400Y-120785900D01*
X166514700Y-93716300D02*
X166514700Y-93980000D01*
X165653100Y-92854700D02*
X166514700Y-93716300D01*
X151385700Y-92854700D02*
X165653100Y-92854700D01*
X148684800Y-95555600D02*
X151385700Y-92854700D01*
X134499500Y-95555600D02*
X148684800Y-95555600D01*
X133205300Y-94261400D02*
X134499500Y-95555600D01*
X133205300Y-93980000D02*
X133205300Y-94261400D01*
X139700000Y-93980000D02*
X140825300Y-93980000D01*
X175260000Y-93980000D02*
X174134700Y-93980000D01*
X140825300Y-93698700D02*
X140825300Y-93980000D01*
X142119600Y-92404400D02*
X140825300Y-93698700D01*
X172840500Y-92404400D02*
X142119600Y-92404400D01*
X174134700Y-93698600D02*
X172840500Y-92404400D01*
X174134700Y-93980000D02*
X174134700Y-93698600D01*
X169890600Y-115719700D02*
X168765300Y-116845000D01*
X180629400Y-115719700D02*
X169890600Y-115719700D01*
X181754700Y-116845000D02*
X180629400Y-115719700D01*
X182880000Y-116845000D02*
X181754700Y-116845000D01*
X167640000Y-116845000D02*
X168765300Y-116845000D01*
X144780000Y-109225000D02*
X145905300Y-109225000D01*
X167640000Y-111765000D02*
X166514700Y-111765000D01*
X182880000Y-111765000D02*
X182880000Y-110752300D01*
X167640000Y-111765000D02*
X168765300Y-111765000D01*
X166251000Y-111765000D02*
X166514700Y-111765000D01*
X165125700Y-110639700D02*
X166251000Y-111765000D01*
X147320000Y-110639700D02*
X165125700Y-110639700D01*
X145905300Y-109225000D02*
X147320000Y-110639700D01*
X182809200Y-110639700D02*
X182880000Y-110710500D01*
X172620000Y-110639700D02*
X182809200Y-110639700D01*
X171494700Y-111765000D02*
X172620000Y-110639700D01*
X168765300Y-111765000D02*
X171494700Y-111765000D01*
X182880000Y-110710500D02*
X182880000Y-110752300D01*
X186834700Y-106887000D02*
X186834700Y-106680000D01*
X183011200Y-110710500D02*
X186834700Y-106887000D01*
X182880000Y-110710500D02*
X183011200Y-110710500D01*
X187960000Y-106680000D02*
X186834700Y-106680000D01*
X186834700Y-101429800D02*
X186834700Y-106680000D01*
X180510200Y-95105300D02*
X186834700Y-101429800D01*
X179769200Y-95105300D02*
X180510200Y-95105300D01*
X178925300Y-94261400D02*
X179769200Y-95105300D01*
X178925300Y-93980000D02*
X178925300Y-94261400D01*
X177800000Y-93980000D02*
X178925300Y-93980000D01*
X177800000Y-154960000D02*
X178925300Y-154960000D01*
X187285200Y-151107800D02*
X190441600Y-151107800D01*
X184558300Y-153834700D02*
X187285200Y-151107800D01*
X179769200Y-153834700D02*
X184558300Y-153834700D01*
X178925300Y-154678600D02*
X179769200Y-153834700D01*
X178925300Y-154960000D02*
X178925300Y-154678600D01*
X134620000Y-108322400D02*
X134620000Y-101600000D01*
X124832400Y-118110000D02*
X134620000Y-108322400D01*
X124084200Y-118110000D02*
X124832400Y-118110000D01*
X122830800Y-119363400D02*
X124084200Y-118110000D01*
X122830800Y-155558400D02*
X122830800Y-119363400D01*
X124764300Y-157491900D02*
X122830800Y-155558400D01*
X171884100Y-157491900D02*
X124764300Y-157491900D01*
X174134700Y-155241300D02*
X171884100Y-157491900D01*
X174134700Y-154960000D02*
X174134700Y-155241300D01*
X175260000Y-154960000D02*
X174134700Y-154960000D01*
X172720000Y-154960000D02*
X171594700Y-154960000D01*
X139695000Y-149860000D02*
X140820300Y-149860000D01*
X171594700Y-154678700D02*
X171594700Y-154960000D01*
X166490300Y-149574300D02*
X171594700Y-154678700D01*
X141106000Y-149574300D02*
X166490300Y-149574300D01*
X140820300Y-149860000D02*
X141106000Y-149574300D01*
X124455000Y-147320000D02*
X125580300Y-147320000D01*
X170180000Y-154960000D02*
X169054700Y-154960000D01*
X169054700Y-154678700D02*
X169054700Y-154960000D01*
X168015500Y-153639500D02*
X169054700Y-154678700D01*
X131899800Y-153639500D02*
X168015500Y-153639500D01*
X125580300Y-147320000D02*
X131899800Y-153639500D01*
X124455000Y-149860000D02*
X124455000Y-150985300D01*
X167640000Y-154960000D02*
X166514700Y-154960000D01*
X124173700Y-150985300D02*
X124455000Y-150985300D01*
X123285900Y-151873100D02*
X124173700Y-150985300D01*
X123285900Y-155364900D02*
X123285900Y-151873100D01*
X124915800Y-156994800D02*
X123285900Y-155364900D01*
X164761200Y-156994800D02*
X124915800Y-156994800D01*
X166514700Y-155241300D02*
X164761200Y-156994800D01*
X166514700Y-154960000D02*
X166514700Y-155241300D01*
X124455000Y-154940000D02*
X125580300Y-154940000D01*
X165100000Y-154960000D02*
X163974700Y-154960000D01*
X127175900Y-156535600D02*
X125580300Y-154940000D01*
X162680500Y-156535600D02*
X127175900Y-156535600D01*
X163974700Y-155241400D02*
X162680500Y-156535600D01*
X163974700Y-154960000D02*
X163974700Y-155241400D01*
X158894700Y-155152800D02*
X158894700Y-154960000D01*
X157962200Y-156085300D02*
X158894700Y-155152800D01*
X129265600Y-156085300D02*
X157962200Y-156085300D01*
X125580300Y-152400000D02*
X129265600Y-156085300D01*
X160020000Y-154960000D02*
X158894700Y-154960000D01*
X124455000Y-152400000D02*
X125580300Y-152400000D01*
X139695000Y-142240000D02*
X139695000Y-141677300D01*
X139695000Y-141677300D02*
X152129100Y-141677300D01*
X139983800Y-138574700D02*
X139695000Y-138574700D01*
X151274700Y-127283800D02*
X139983800Y-138574700D01*
X151274700Y-127005000D02*
X151274700Y-127283800D01*
X152400000Y-127005000D02*
X151274700Y-127005000D01*
X139695000Y-139700000D02*
X139695000Y-138574700D01*
X140402100Y-136034700D02*
X139695000Y-136034700D01*
X151274700Y-125162100D02*
X140402100Y-136034700D01*
X151274700Y-124465000D02*
X151274700Y-125162100D01*
X152400000Y-124465000D02*
X151274700Y-124465000D01*
X139695000Y-137160000D02*
X139695000Y-136034700D01*
X141159800Y-134620000D02*
X139695000Y-134620000D01*
X143065300Y-132714500D02*
X141159800Y-134620000D01*
X143065300Y-127098000D02*
X143065300Y-132714500D01*
X144428300Y-125735000D02*
X143065300Y-127098000D01*
X147464700Y-125735000D02*
X144428300Y-125735000D01*
X151274700Y-121925000D02*
X147464700Y-125735000D01*
X152400000Y-121925000D02*
X151274700Y-121925000D01*
X139976300Y-130954700D02*
X139695000Y-130954700D01*
X142235000Y-128696000D02*
X139976300Y-130954700D01*
X142235000Y-125338900D02*
X142235000Y-128696000D01*
X144378900Y-123195000D02*
X142235000Y-125338900D01*
X145310200Y-123195000D02*
X144378900Y-123195000D01*
X149120200Y-119385000D02*
X145310200Y-123195000D01*
X152400000Y-119385000D02*
X149120200Y-119385000D01*
X139695000Y-132080000D02*
X139695000Y-130954700D01*
X139976400Y-128414700D02*
X139695000Y-128414700D01*
X140820300Y-127570800D02*
X139976400Y-128414700D01*
X140820300Y-124213600D02*
X140820300Y-127570800D01*
X144378900Y-120655000D02*
X140820300Y-124213600D01*
X145310200Y-120655000D02*
X144378900Y-120655000D01*
X149120200Y-116845000D02*
X145310200Y-120655000D01*
X152400000Y-116845000D02*
X149120200Y-116845000D01*
X139695000Y-129540000D02*
X139695000Y-128414700D01*
X175260000Y-109225000D02*
X174134700Y-109225000D01*
X154341800Y-105519200D02*
X154341800Y-106806400D01*
X170428900Y-105519200D02*
X154341800Y-105519200D01*
X174134700Y-109225000D02*
X170428900Y-105519200D01*
X124173600Y-125874700D02*
X124455000Y-125874700D01*
X123329700Y-125030800D02*
X124173600Y-125874700D01*
X123329700Y-121394800D02*
X123329700Y-125030800D01*
X124074500Y-120650000D02*
X123329700Y-121394800D01*
X124861500Y-120650000D02*
X124074500Y-120650000D01*
X137561500Y-107950000D02*
X124861500Y-120650000D01*
X140025500Y-107950000D02*
X137561500Y-107950000D01*
X142456300Y-105519200D02*
X140025500Y-107950000D01*
X154341800Y-105519200D02*
X142456300Y-105519200D01*
X124455000Y-127000000D02*
X124455000Y-125874700D01*
X168445900Y-120655000D02*
X162933400Y-120655000D01*
X169715900Y-119385000D02*
X168445900Y-120655000D01*
X175260000Y-119385000D02*
X169715900Y-119385000D01*
X158894700Y-140001300D02*
X158894700Y-139720000D01*
X155509300Y-143386700D02*
X158894700Y-140001300D01*
X136887000Y-143386700D02*
X155509300Y-143386700D01*
X125580300Y-132080000D02*
X136887000Y-143386700D01*
X124455000Y-132080000D02*
X125580300Y-132080000D01*
X160020000Y-139720000D02*
X158894700Y-139720000D01*
X124455000Y-134620000D02*
X124455000Y-133494700D01*
X162560000Y-139720000D02*
X162560000Y-138409800D01*
X161249800Y-137099600D02*
X144991600Y-137099600D01*
X162560000Y-138409800D02*
X161249800Y-137099600D01*
X137790500Y-133442200D02*
X141249400Y-133442200D01*
X135287300Y-130939000D02*
X137790500Y-133442200D01*
X123973700Y-130939000D02*
X135287300Y-130939000D01*
X123321300Y-131591400D02*
X123973700Y-130939000D01*
X123321300Y-132642300D02*
X123321300Y-131591400D01*
X124173700Y-133494700D02*
X123321300Y-132642300D01*
X124455000Y-133494700D02*
X124173700Y-133494700D01*
X163185700Y-138409800D02*
X173759100Y-127836400D01*
X162560000Y-138409800D02*
X163185700Y-138409800D01*
X124455000Y-137160000D02*
X124455000Y-138285300D01*
X165100000Y-139720000D02*
X165100000Y-138594700D01*
X163933800Y-151008300D02*
X164642500Y-150299600D01*
X130024900Y-151008300D02*
X163933800Y-151008300D01*
X124922000Y-145905400D02*
X130024900Y-151008300D01*
X123968800Y-145905400D02*
X124922000Y-145905400D01*
X123326400Y-145263000D02*
X123968800Y-145905400D01*
X123326400Y-139132600D02*
X123326400Y-145263000D01*
X124173700Y-138285300D02*
X123326400Y-139132600D01*
X124455000Y-138285300D02*
X124173700Y-138285300D01*
X173214900Y-130308600D02*
X173877200Y-130308600D01*
X165100000Y-138423500D02*
X173214900Y-130308600D01*
X165100000Y-138594700D02*
X165100000Y-138423500D01*
X167640000Y-139720000D02*
X168765300Y-139720000D01*
X175479100Y-132724900D02*
X176293600Y-132724900D01*
X168765300Y-139438700D02*
X175479100Y-132724900D01*
X168765300Y-139720000D02*
X168765300Y-139438700D01*
X176400500Y-132618000D02*
X176293600Y-132724900D01*
X176400500Y-129063300D02*
X176400500Y-132618000D01*
X175743100Y-128405900D02*
X176400500Y-129063300D01*
X174461200Y-128405900D02*
X175743100Y-128405900D01*
X163830000Y-139037100D02*
X174461200Y-128405900D01*
X163830000Y-140103700D02*
X163830000Y-139037100D01*
X163063700Y-140870000D02*
X163830000Y-140103700D01*
X162109700Y-140870000D02*
X163063700Y-140870000D01*
X161290000Y-140050300D02*
X162109700Y-140870000D01*
X161290000Y-139393200D02*
X161290000Y-140050300D01*
X160429700Y-138532900D02*
X161290000Y-139393200D01*
X146842200Y-138532900D02*
X160429700Y-138532900D01*
X146050000Y-139325100D02*
X146842200Y-138532900D01*
X146050000Y-140055700D02*
X146050000Y-139325100D01*
X145254900Y-140850800D02*
X146050000Y-140055700D01*
X135639000Y-140850800D02*
X145254900Y-140850800D01*
X133070900Y-138282700D02*
X135639000Y-140850800D01*
X124455000Y-142240000D02*
X125580300Y-142240000D01*
X164984600Y-144915400D02*
X170180000Y-139720000D01*
X148896800Y-144915400D02*
X164984600Y-144915400D01*
X147897000Y-145915200D02*
X148896800Y-144915400D01*
X129255500Y-145915200D02*
X147897000Y-145915200D01*
X125580300Y-142240000D02*
X129255500Y-145915200D01*
X178032600Y-132056400D02*
X178032600Y-131901500D01*
X171305300Y-138783700D02*
X178032600Y-132056400D01*
X171305300Y-139720000D02*
X171305300Y-138783700D01*
X170180000Y-139720000D02*
X171305300Y-139720000D01*
X124455000Y-144780000D02*
X125580300Y-144780000D01*
X172720000Y-139720000D02*
X173043400Y-139720000D01*
X173043400Y-139720000D02*
X173668400Y-139720000D01*
X182880000Y-129545000D02*
X182880000Y-130670300D01*
X177014200Y-135749200D02*
X173043400Y-139720000D01*
X177801100Y-135749200D02*
X177014200Y-135749200D01*
X182880000Y-130670300D02*
X177801100Y-135749200D01*
X167022400Y-146366000D02*
X173668400Y-139720000D01*
X149165400Y-146366000D02*
X167022400Y-146366000D01*
X147085000Y-148446400D02*
X149165400Y-146366000D01*
X129246700Y-148446400D02*
X147085000Y-148446400D01*
X125580300Y-144780000D02*
X129246700Y-148446400D01*
X139695000Y-152400000D02*
X146057000Y-152400000D01*
X175260000Y-139720000D02*
X174134700Y-139720000D01*
X174134700Y-140001300D02*
X174134700Y-139720000D01*
X167319700Y-146816300D02*
X174134700Y-140001300D01*
X150092300Y-146816300D02*
X167319700Y-146816300D01*
X148473800Y-148434800D02*
X150092300Y-146816300D01*
X205740000Y-152400000D02*
X210820000Y-152400000D01*
X205740000Y-154940000D02*
X210820000Y-154940000D01*
X209405300Y-149860000D02*
X210820000Y-149860000D01*
X206865300Y-147320000D02*
X209405300Y-149860000D01*
X205740000Y-147320000D02*
X206865300Y-147320000D01*
X205458600Y-146194700D02*
X205740000Y-146194700D01*
X204614700Y-145350800D02*
X205458600Y-146194700D01*
X204614700Y-139182500D02*
X204614700Y-145350800D01*
X205367200Y-138430000D02*
X204614700Y-139182500D01*
X206119800Y-138430000D02*
X205367200Y-138430000D01*
X209644700Y-134905100D02*
X206119800Y-138430000D01*
X209644700Y-134063200D02*
X209644700Y-134905100D01*
X210452600Y-133255300D02*
X209644700Y-134063200D01*
X210820000Y-133255300D02*
X210452600Y-133255300D01*
X210820000Y-132080000D02*
X210820000Y-133255300D01*
X205740000Y-147320000D02*
X205740000Y-146194700D01*
X205740000Y-144780000D02*
X206865300Y-144780000D01*
X210820000Y-129540000D02*
X210820000Y-130715300D01*
X207547700Y-144780000D02*
X206865300Y-144780000D01*
X207547700Y-142103300D02*
X207547700Y-144780000D01*
X212005000Y-137646000D02*
X207547700Y-142103300D01*
X212005000Y-131533000D02*
X212005000Y-137646000D01*
X211187300Y-130715300D02*
X212005000Y-131533000D01*
X210820000Y-130715300D02*
X211187300Y-130715300D01*
X209644700Y-146877000D02*
X209644700Y-147320000D01*
X207547700Y-144780000D02*
X209644700Y-146877000D01*
X210820000Y-147320000D02*
X209644700Y-147320000D01*
M02*
