G04 #@! TF.GenerationSoftware,KiCad,Pcbnew,6.0.5-a6ca702e91~116~ubuntu20.04.1*
G04 #@! TF.CreationDate,2022-05-31T07:59:30+02:00*
G04 #@! TF.ProjectId,PZ1_Pico,505a315f-5069-4636-9f2e-6b696361645f,rev?*
G04 #@! TF.SameCoordinates,Original*
G04 #@! TF.FileFunction,Copper,L4,Bot*
G04 #@! TF.FilePolarity,Positive*
%FSLAX46Y46*%
G04 Gerber Fmt 4.6, Leading zero omitted, Abs format (unit mm)*
G04 Created by KiCad (PCBNEW 6.0.5-a6ca702e91~116~ubuntu20.04.1) date 2022-05-31 07:59:30*
%MOMM*%
%LPD*%
G01*
G04 APERTURE LIST*
G04 Aperture macros list*
%AMRoundRect*
0 Rectangle with rounded corners*
0 $1 Rounding radius*
0 $2 $3 $4 $5 $6 $7 $8 $9 X,Y pos of 4 corners*
0 Add a 4 corners polygon primitive as box body*
4,1,4,$2,$3,$4,$5,$6,$7,$8,$9,$2,$3,0*
0 Add four circle primitives for the rounded corners*
1,1,$1+$1,$2,$3*
1,1,$1+$1,$4,$5*
1,1,$1+$1,$6,$7*
1,1,$1+$1,$8,$9*
0 Add four rect primitives between the rounded corners*
20,1,$1+$1,$2,$3,$4,$5,0*
20,1,$1+$1,$4,$5,$6,$7,0*
20,1,$1+$1,$6,$7,$8,$9,0*
20,1,$1+$1,$8,$9,$2,$3,0*%
G04 Aperture macros list end*
G04 #@! TA.AperFunction,ComponentPad*
%ADD10R,1.600000X1.600000*%
G04 #@! TD*
G04 #@! TA.AperFunction,ComponentPad*
%ADD11O,1.600000X1.600000*%
G04 #@! TD*
G04 #@! TA.AperFunction,ComponentPad*
%ADD12R,1.700000X1.700000*%
G04 #@! TD*
G04 #@! TA.AperFunction,ComponentPad*
%ADD13O,1.700000X1.700000*%
G04 #@! TD*
G04 #@! TA.AperFunction,SMDPad,CuDef*
%ADD14RoundRect,0.250000X0.337500X0.475000X-0.337500X0.475000X-0.337500X-0.475000X0.337500X-0.475000X0*%
G04 #@! TD*
G04 #@! TA.AperFunction,SMDPad,CuDef*
%ADD15RoundRect,0.250000X0.475000X-0.337500X0.475000X0.337500X-0.475000X0.337500X-0.475000X-0.337500X0*%
G04 #@! TD*
G04 #@! TA.AperFunction,SMDPad,CuDef*
%ADD16RoundRect,0.250000X-0.475000X0.337500X-0.475000X-0.337500X0.475000X-0.337500X0.475000X0.337500X0*%
G04 #@! TD*
G04 #@! TA.AperFunction,SMDPad,CuDef*
%ADD17RoundRect,0.250000X-0.337500X-0.475000X0.337500X-0.475000X0.337500X0.475000X-0.337500X0.475000X0*%
G04 #@! TD*
G04 #@! TA.AperFunction,ViaPad*
%ADD18C,0.800000*%
G04 #@! TD*
G04 #@! TA.AperFunction,Conductor*
%ADD19C,0.250000*%
G04 #@! TD*
G04 #@! TA.AperFunction,Conductor*
%ADD20C,0.635000*%
G04 #@! TD*
G04 #@! TA.AperFunction,Conductor*
%ADD21C,1.000000*%
G04 #@! TD*
G04 APERTURE END LIST*
D10*
X147320000Y-93980000D03*
D11*
X144780000Y-93980000D03*
X142240000Y-93980000D03*
X139700000Y-93980000D03*
X137160000Y-93980000D03*
X134620000Y-93980000D03*
X132080000Y-93980000D03*
X129540000Y-93980000D03*
X127000000Y-93980000D03*
X124460000Y-93980000D03*
X124460000Y-101600000D03*
X127000000Y-101600000D03*
X129540000Y-101600000D03*
X132080000Y-101600000D03*
X134620000Y-101600000D03*
X137160000Y-101600000D03*
X139700000Y-101600000D03*
X142240000Y-101600000D03*
X144780000Y-101600000D03*
X147320000Y-101600000D03*
D10*
X175260000Y-106685000D03*
D11*
X175260000Y-109225000D03*
X175260000Y-111765000D03*
X175260000Y-114305000D03*
X175260000Y-116845000D03*
X175260000Y-119385000D03*
X175260000Y-121925000D03*
X175260000Y-124465000D03*
X175260000Y-127005000D03*
X175260000Y-129545000D03*
X182880000Y-129545000D03*
X182880000Y-127005000D03*
X182880000Y-124465000D03*
X182880000Y-121925000D03*
X182880000Y-119385000D03*
X182880000Y-116845000D03*
X182880000Y-114305000D03*
X182880000Y-111765000D03*
X182880000Y-109225000D03*
X182880000Y-106685000D03*
D10*
X182880000Y-139720000D03*
D11*
X180340000Y-139720000D03*
X177800000Y-139720000D03*
X175260000Y-139720000D03*
X172720000Y-139720000D03*
X170180000Y-139720000D03*
X167640000Y-139720000D03*
X165100000Y-139720000D03*
X162560000Y-139720000D03*
X160020000Y-139720000D03*
X157480000Y-139720000D03*
X154940000Y-139720000D03*
X152400000Y-139720000D03*
X149860000Y-139720000D03*
X147320000Y-139720000D03*
X144780000Y-139720000D03*
X144780000Y-154960000D03*
X147320000Y-154960000D03*
X149860000Y-154960000D03*
X152400000Y-154960000D03*
X154940000Y-154960000D03*
X157480000Y-154960000D03*
X160020000Y-154960000D03*
X162560000Y-154960000D03*
X165100000Y-154960000D03*
X167640000Y-154960000D03*
X170180000Y-154960000D03*
X172720000Y-154960000D03*
X175260000Y-154960000D03*
X177800000Y-154960000D03*
X180340000Y-154960000D03*
X182880000Y-154960000D03*
D10*
X160020000Y-106685000D03*
D11*
X160020000Y-109225000D03*
X160020000Y-111765000D03*
X160020000Y-114305000D03*
X160020000Y-116845000D03*
X160020000Y-119385000D03*
X160020000Y-121925000D03*
X160020000Y-124465000D03*
X160020000Y-127005000D03*
X160020000Y-129545000D03*
X167640000Y-129545000D03*
X167640000Y-127005000D03*
X167640000Y-124465000D03*
X167640000Y-121925000D03*
X167640000Y-119385000D03*
X167640000Y-116845000D03*
X167640000Y-114305000D03*
X167640000Y-111765000D03*
X167640000Y-109225000D03*
X167640000Y-106685000D03*
D12*
X210820000Y-111760000D03*
D13*
X210820000Y-114300000D03*
X210820000Y-116840000D03*
X210820000Y-119380000D03*
D10*
X124455000Y-106680000D03*
D11*
X124455000Y-109220000D03*
X124455000Y-111760000D03*
X124455000Y-114300000D03*
X124455000Y-116840000D03*
X124455000Y-119380000D03*
X124455000Y-121920000D03*
X124455000Y-124460000D03*
X124455000Y-127000000D03*
X124455000Y-129540000D03*
X124455000Y-132080000D03*
X124455000Y-134620000D03*
X124455000Y-137160000D03*
X124455000Y-139700000D03*
X124455000Y-142240000D03*
X124455000Y-144780000D03*
X124455000Y-147320000D03*
X124455000Y-149860000D03*
X124455000Y-152400000D03*
X124455000Y-154940000D03*
X139695000Y-154940000D03*
X139695000Y-152400000D03*
X139695000Y-149860000D03*
X139695000Y-147320000D03*
X139695000Y-144780000D03*
X139695000Y-142240000D03*
X139695000Y-139700000D03*
X139695000Y-137160000D03*
X139695000Y-134620000D03*
X139695000Y-132080000D03*
X139695000Y-129540000D03*
X139695000Y-127000000D03*
X139695000Y-124460000D03*
X139695000Y-121920000D03*
X139695000Y-119380000D03*
X139695000Y-116840000D03*
X139695000Y-114300000D03*
X139695000Y-111760000D03*
X139695000Y-109220000D03*
X139695000Y-106680000D03*
D12*
X210820000Y-142240000D03*
D13*
X210820000Y-144780000D03*
X210820000Y-147320000D03*
X210820000Y-149860000D03*
X210820000Y-152400000D03*
X210820000Y-154940000D03*
D12*
X210820000Y-99060000D03*
D13*
X210820000Y-101600000D03*
X210820000Y-104140000D03*
X210820000Y-106680000D03*
D12*
X210820000Y-91440000D03*
D13*
X210820000Y-93980000D03*
D10*
X187960000Y-106680000D03*
D11*
X187960000Y-109220000D03*
X187960000Y-111760000D03*
X187960000Y-114300000D03*
X187960000Y-116840000D03*
X187960000Y-119380000D03*
X187960000Y-121920000D03*
X187960000Y-124460000D03*
X187960000Y-127000000D03*
X187960000Y-129540000D03*
X187960000Y-132080000D03*
X187960000Y-134620000D03*
X187960000Y-137160000D03*
X187960000Y-139700000D03*
X187960000Y-142240000D03*
X187960000Y-144780000D03*
X187960000Y-147320000D03*
X187960000Y-149860000D03*
X187960000Y-152400000D03*
X187960000Y-154940000D03*
X205740000Y-154940000D03*
X205740000Y-152400000D03*
X205740000Y-149860000D03*
X205740000Y-147320000D03*
X205740000Y-144780000D03*
X205740000Y-142240000D03*
X205740000Y-139700000D03*
X205740000Y-137160000D03*
X205740000Y-134620000D03*
X205740000Y-132080000D03*
X205740000Y-129540000D03*
X205740000Y-127000000D03*
X205740000Y-124460000D03*
X205740000Y-121920000D03*
X205740000Y-119380000D03*
X205740000Y-116840000D03*
X205740000Y-114300000D03*
X205740000Y-111760000D03*
X205740000Y-109220000D03*
X205740000Y-106680000D03*
D12*
X210820000Y-124460000D03*
D13*
X210820000Y-127000000D03*
X210820000Y-129540000D03*
X210820000Y-132080000D03*
X210820000Y-134620000D03*
X210820000Y-137160000D03*
D10*
X182880000Y-93980000D03*
D11*
X180340000Y-93980000D03*
X177800000Y-93980000D03*
X175260000Y-93980000D03*
X172720000Y-93980000D03*
X170180000Y-93980000D03*
X167640000Y-93980000D03*
X165100000Y-93980000D03*
X162560000Y-93980000D03*
X160020000Y-93980000D03*
X160020000Y-101600000D03*
X162560000Y-101600000D03*
X165100000Y-101600000D03*
X167640000Y-101600000D03*
X170180000Y-101600000D03*
X172720000Y-101600000D03*
X175260000Y-101600000D03*
X177800000Y-101600000D03*
X180340000Y-101600000D03*
X182880000Y-101600000D03*
D10*
X144780000Y-106685000D03*
D11*
X144780000Y-109225000D03*
X144780000Y-111765000D03*
X144780000Y-114305000D03*
X144780000Y-116845000D03*
X144780000Y-119385000D03*
X144780000Y-121925000D03*
X144780000Y-124465000D03*
X144780000Y-127005000D03*
X144780000Y-129545000D03*
X152400000Y-129545000D03*
X152400000Y-127005000D03*
X152400000Y-124465000D03*
X152400000Y-121925000D03*
X152400000Y-119385000D03*
X152400000Y-116845000D03*
X152400000Y-114305000D03*
X152400000Y-111765000D03*
X152400000Y-109225000D03*
X152400000Y-106685000D03*
D14*
X180848000Y-106685000D03*
X178773000Y-106685000D03*
X165608000Y-106685000D03*
X163533000Y-106685000D03*
X150368000Y-106685000D03*
X148293000Y-106685000D03*
D15*
X147320000Y-99568000D03*
X147320000Y-97493000D03*
D16*
X203454000Y-114765000D03*
X203454000Y-116840000D03*
D17*
X126487000Y-124460000D03*
X128562000Y-124460000D03*
D15*
X182880000Y-152908000D03*
X182880000Y-150833000D03*
X182880000Y-99568000D03*
X182880000Y-97493000D03*
D18*
X165998500Y-138550700D03*
X154472700Y-145640700D03*
X156583600Y-122958400D03*
X154332000Y-148280100D03*
X177629800Y-136474500D03*
X172184700Y-110049200D03*
X132616500Y-121920000D03*
X151310900Y-147554800D03*
X147856500Y-112890300D03*
X190441600Y-151107800D03*
X152129100Y-141677300D03*
X154341800Y-106806400D03*
X162933400Y-120655000D03*
X141249400Y-133442200D03*
X144991600Y-137099600D03*
X173759100Y-127836400D03*
X173877200Y-130308600D03*
X164642500Y-150299600D03*
X176293600Y-132724900D03*
X133070900Y-138282700D03*
X178032600Y-131901500D03*
X146057000Y-152400000D03*
X148473800Y-148434800D03*
X202438000Y-116840000D03*
X180848000Y-107701000D03*
X146304000Y-99568000D03*
X165608000Y-107701000D03*
X181863971Y-99568000D03*
X150368000Y-107701000D03*
X181864000Y-152908000D03*
X126487000Y-125476000D03*
X181863971Y-97493000D03*
X148293000Y-107701000D03*
X181864000Y-150833000D03*
X163533000Y-107701000D03*
X146304000Y-97493000D03*
X128519000Y-125476000D03*
X202438000Y-114765000D03*
X178773000Y-107701000D03*
D19*
X138569700Y-99055000D02*
X134620000Y-95105300D01*
X138569700Y-104429400D02*
X138569700Y-99055000D01*
X139695000Y-105554700D02*
X138569700Y-104429400D01*
X139695000Y-106680000D02*
X139695000Y-105554700D01*
X134620000Y-93980000D02*
X134620000Y-95105300D01*
X139695000Y-116840000D02*
X139695000Y-115714700D01*
X127000000Y-93980000D02*
X127000000Y-95105300D01*
X128125300Y-96230600D02*
X127000000Y-95105300D01*
X128125300Y-104426300D02*
X128125300Y-96230600D01*
X139413700Y-115714700D02*
X128125300Y-104426300D01*
X139695000Y-115714700D02*
X139413700Y-115714700D01*
X165998500Y-132311800D02*
X167640000Y-130670300D01*
X165998500Y-138550700D02*
X165998500Y-132311800D01*
X167640000Y-129545000D02*
X167640000Y-130670300D01*
X156210000Y-123332000D02*
X156583600Y-122958400D01*
X156210000Y-143903400D02*
X156210000Y-123332000D01*
X154472700Y-145640700D02*
X156210000Y-143903400D01*
X136034700Y-93698600D02*
X136034700Y-93980000D01*
X135190800Y-92854700D02*
X136034700Y-93698600D01*
X126531100Y-92854700D02*
X135190800Y-92854700D01*
X125730000Y-93655800D02*
X126531100Y-92854700D01*
X125730000Y-117261000D02*
X125730000Y-93655800D01*
X124736300Y-118254700D02*
X125730000Y-117261000D01*
X124455000Y-118254700D02*
X124736300Y-118254700D01*
X124455000Y-119380000D02*
X124455000Y-118254700D01*
X137160000Y-93980000D02*
X136034700Y-93980000D01*
X210820000Y-116840000D02*
X210820000Y-118015300D01*
X205740000Y-134620000D02*
X205740000Y-133494700D01*
X206021300Y-133494700D02*
X205740000Y-133494700D01*
X209644700Y-129871300D02*
X206021300Y-133494700D01*
X209644700Y-118883200D02*
X209644700Y-129871300D01*
X210512600Y-118015300D02*
X209644700Y-118883200D01*
X210820000Y-118015300D02*
X210512600Y-118015300D01*
X211995300Y-121730600D02*
X210820000Y-120555300D01*
X211995300Y-132663500D02*
X211995300Y-121730600D01*
X211308800Y-133350000D02*
X211995300Y-132663500D01*
X210425800Y-133350000D02*
X211308800Y-133350000D01*
X206865300Y-136910500D02*
X210425800Y-133350000D01*
X206865300Y-137730800D02*
X206865300Y-136910500D01*
X206021400Y-138574700D02*
X206865300Y-137730800D01*
X205740000Y-138574700D02*
X206021400Y-138574700D01*
X205740000Y-139700000D02*
X205740000Y-138574700D01*
X210820000Y-119380000D02*
X210820000Y-120555300D01*
X160020000Y-101600000D02*
X161145300Y-101600000D01*
X161145300Y-102625700D02*
X161145300Y-101600000D01*
X164547500Y-106027900D02*
X161145300Y-102625700D01*
X164547500Y-115398900D02*
X164547500Y-106027900D01*
X167263600Y-118115000D02*
X164547500Y-115398900D01*
X168034900Y-118115000D02*
X167263600Y-118115000D01*
X170331900Y-120412000D02*
X168034900Y-118115000D01*
X170331900Y-133522600D02*
X170331900Y-120412000D01*
X173990000Y-137180700D02*
X170331900Y-133522600D01*
X173990000Y-140082900D02*
X173990000Y-137180700D01*
X186307100Y-152400000D02*
X173990000Y-140082900D01*
X187960000Y-152400000D02*
X186307100Y-152400000D01*
X124460000Y-101600000D02*
X124460000Y-102725300D01*
X187960000Y-154940000D02*
X186834700Y-154940000D01*
X184331700Y-157443000D02*
X186834700Y-154940000D01*
X143716000Y-157443000D02*
X184331700Y-157443000D01*
X141378600Y-155105600D02*
X143716000Y-157443000D01*
X141378600Y-149869800D02*
X141378600Y-155105600D01*
X140098800Y-148590000D02*
X141378600Y-149869800D01*
X139371900Y-148590000D02*
X140098800Y-148590000D01*
X134323700Y-143541800D02*
X139371900Y-148590000D01*
X134323700Y-128588200D02*
X134323700Y-143541800D01*
X126385500Y-120650000D02*
X134323700Y-128588200D01*
X124074500Y-120650000D02*
X126385500Y-120650000D01*
X123307900Y-119883400D02*
X124074500Y-120650000D01*
X123307900Y-103877400D02*
X123307900Y-119883400D01*
X124460000Y-102725300D02*
X123307900Y-103877400D01*
X152400000Y-109225000D02*
X152400000Y-110350300D01*
X153747400Y-147695500D02*
X154332000Y-148280100D01*
X153747400Y-131705600D02*
X153747400Y-147695500D01*
X153981600Y-131471400D02*
X153747400Y-131705600D01*
X153981600Y-111650600D02*
X153981600Y-131471400D01*
X152681300Y-110350300D02*
X153981600Y-111650600D01*
X152400000Y-110350300D02*
X152681300Y-110350300D01*
X167640000Y-109225000D02*
X167640000Y-110350300D01*
X167921300Y-110350300D02*
X167640000Y-110350300D01*
X171232500Y-113661500D02*
X167921300Y-110350300D01*
X171232500Y-133052000D02*
X171232500Y-113661500D01*
X176650300Y-138469800D02*
X171232500Y-133052000D01*
X176650300Y-140387000D02*
X176650300Y-138469800D01*
X181043300Y-144780000D02*
X176650300Y-140387000D01*
X187960000Y-144780000D02*
X181043300Y-144780000D01*
X184005300Y-109506300D02*
X184005300Y-109225000D01*
X187529000Y-113030000D02*
X184005300Y-109506300D01*
X188314700Y-113030000D02*
X187529000Y-113030000D01*
X189094400Y-113809700D02*
X188314700Y-113030000D01*
X189094400Y-140261600D02*
X189094400Y-113809700D01*
X188241300Y-141114700D02*
X189094400Y-140261600D01*
X187960000Y-141114700D02*
X188241300Y-141114700D01*
X187960000Y-142240000D02*
X187960000Y-141114700D01*
X182880000Y-109225000D02*
X184005300Y-109225000D01*
X172184700Y-131029400D02*
X172184700Y-110049200D01*
X177629800Y-136474500D02*
X172184700Y-131029400D01*
X148445400Y-144689300D02*
X151310900Y-147554800D01*
X148445400Y-136528200D02*
X148445400Y-144689300D01*
X140062100Y-128144900D02*
X148445400Y-136528200D01*
X138841400Y-128144900D02*
X140062100Y-128144900D01*
X132616500Y-121920000D02*
X138841400Y-128144900D01*
X175260000Y-127005000D02*
X175260000Y-125879700D01*
X177800000Y-101600000D02*
X177800000Y-102725300D01*
X177800000Y-123621000D02*
X177800000Y-102725300D01*
X175541300Y-125879700D02*
X177800000Y-123621000D01*
X175260000Y-125879700D02*
X175541300Y-125879700D01*
X175260000Y-101600000D02*
X175260000Y-102725300D01*
X175260000Y-121925000D02*
X175260000Y-120799700D01*
X175541400Y-120799700D02*
X175260000Y-120799700D01*
X176849800Y-119491300D02*
X175541400Y-120799700D01*
X176849800Y-104315100D02*
X176849800Y-119491300D01*
X175260000Y-102725300D02*
X176849800Y-104315100D01*
X167640000Y-101600000D02*
X167640000Y-102725300D01*
X175260000Y-116845000D02*
X175260000Y-115719700D01*
X172686600Y-107771900D02*
X167640000Y-102725300D01*
X172686600Y-109525300D02*
X172686600Y-107771900D01*
X172910000Y-109748700D02*
X172686600Y-109525300D01*
X172910000Y-113651100D02*
X172910000Y-109748700D01*
X174978600Y-115719700D02*
X172910000Y-113651100D01*
X175260000Y-115719700D02*
X174978600Y-115719700D01*
X175260000Y-111765000D02*
X175260000Y-110639700D01*
X165100000Y-101600000D02*
X166225300Y-101600000D01*
X166225300Y-101318600D02*
X166225300Y-101600000D01*
X167069200Y-100474700D02*
X166225300Y-101318600D01*
X168146400Y-100474700D02*
X167069200Y-100474700D01*
X168910000Y-101238300D02*
X168146400Y-100474700D01*
X168910000Y-102721500D02*
X168910000Y-101238300D01*
X173136900Y-106948400D02*
X168910000Y-102721500D01*
X173136900Y-108798000D02*
X173136900Y-106948400D01*
X174978600Y-110639700D02*
X173136900Y-108798000D01*
X175260000Y-110639700D02*
X174978600Y-110639700D01*
X144780000Y-119385000D02*
X144780000Y-118822300D01*
X147856500Y-115388900D02*
X147856500Y-112890300D01*
X144777700Y-118467700D02*
X147856500Y-115388900D01*
X144780000Y-118470100D02*
X144777700Y-118467700D01*
X144780000Y-118822300D02*
X144780000Y-118470100D01*
X129540000Y-103256300D02*
X129540000Y-101600000D01*
X139313700Y-113030000D02*
X129540000Y-103256300D01*
X140082900Y-113030000D02*
X139313700Y-113030000D01*
X141196400Y-114143500D02*
X140082900Y-113030000D01*
X141196400Y-114886500D02*
X141196400Y-114143500D01*
X144777700Y-118467700D02*
X141196400Y-114886500D01*
X183161400Y-125879700D02*
X182880000Y-125879700D01*
X184005300Y-125035800D02*
X183161400Y-125879700D01*
X184005300Y-121638600D02*
X184005300Y-125035800D01*
X187678600Y-117965300D02*
X184005300Y-121638600D01*
X187960000Y-117965300D02*
X187678600Y-117965300D01*
X187960000Y-116840000D02*
X187960000Y-117965300D01*
X182880000Y-127005000D02*
X182880000Y-125879700D01*
X144498600Y-115719700D02*
X144780000Y-115719700D01*
X143654700Y-114875800D02*
X144498600Y-115719700D01*
X143654700Y-114122200D02*
X143654700Y-114875800D01*
X140022500Y-110490000D02*
X143654700Y-114122200D01*
X139296200Y-110490000D02*
X140022500Y-110490000D01*
X130665300Y-101859100D02*
X139296200Y-110490000D01*
X130665300Y-96230600D02*
X130665300Y-101859100D01*
X129540000Y-95105300D02*
X130665300Y-96230600D01*
X129540000Y-93980000D02*
X129540000Y-95105300D01*
X144780000Y-116845000D02*
X144780000Y-115719700D01*
X165100000Y-93980000D02*
X165100000Y-95105300D01*
X167640000Y-127005000D02*
X167640000Y-125879700D01*
X167445700Y-125879700D02*
X167640000Y-125879700D01*
X165549000Y-123983000D02*
X167445700Y-125879700D01*
X165549000Y-118755300D02*
X165549000Y-123983000D01*
X161718500Y-114924800D02*
X165549000Y-118755300D01*
X161718500Y-106309400D02*
X161718500Y-114924800D01*
X158395900Y-102986800D02*
X161718500Y-106309400D01*
X158395900Y-100976200D02*
X158395900Y-102986800D01*
X164266800Y-95105300D02*
X158395900Y-100976200D01*
X165100000Y-95105300D02*
X164266800Y-95105300D01*
X183161400Y-120799700D02*
X182880000Y-120799700D01*
X184005300Y-119955800D02*
X183161400Y-120799700D01*
X184005300Y-119098600D02*
X184005300Y-119955800D01*
X187678600Y-115425300D02*
X184005300Y-119098600D01*
X187960000Y-115425300D02*
X187678600Y-115425300D01*
X187960000Y-114300000D02*
X187960000Y-115425300D01*
X182880000Y-121925000D02*
X182880000Y-120799700D01*
X144498600Y-113179700D02*
X144780000Y-113179700D01*
X143654700Y-112335800D02*
X144498600Y-113179700D01*
X143654700Y-111526400D02*
X143654700Y-112335800D01*
X140078300Y-107950000D02*
X143654700Y-111526400D01*
X139338900Y-107950000D02*
X140078300Y-107950000D01*
X133205300Y-101816400D02*
X139338900Y-107950000D01*
X133205300Y-96230600D02*
X133205300Y-101816400D01*
X132080000Y-95105300D02*
X133205300Y-96230600D01*
X132080000Y-93980000D02*
X132080000Y-95105300D01*
X144780000Y-114305000D02*
X144780000Y-113179700D01*
X167358600Y-120799700D02*
X167640000Y-120799700D01*
X166514700Y-119955800D02*
X167358600Y-120799700D01*
X166514700Y-118003000D02*
X166514700Y-119955800D01*
X162279000Y-113767300D02*
X166514700Y-118003000D01*
X162279000Y-105450500D02*
X162279000Y-113767300D01*
X158854800Y-102026300D02*
X162279000Y-105450500D01*
X158854800Y-101154200D02*
X158854800Y-102026300D01*
X159772200Y-100236800D02*
X158854800Y-101154200D01*
X160679900Y-100236800D02*
X159772200Y-100236800D01*
X166514700Y-94402000D02*
X160679900Y-100236800D01*
X166514700Y-93980000D02*
X166514700Y-94402000D01*
X167640000Y-93980000D02*
X166514700Y-93980000D01*
X167640000Y-121925000D02*
X167640000Y-120799700D01*
X143654700Y-99060000D02*
X139700000Y-95105300D01*
X143654700Y-109747400D02*
X143654700Y-99060000D01*
X144547000Y-110639700D02*
X143654700Y-109747400D01*
X144780000Y-110639700D02*
X144547000Y-110639700D01*
X144780000Y-111765000D02*
X144780000Y-110639700D01*
X139700000Y-93980000D02*
X139700000Y-95105300D01*
X175260000Y-93980000D02*
X175260000Y-95105300D01*
X187960000Y-109220000D02*
X187960000Y-108094700D01*
X184005400Y-115719600D02*
X182880000Y-116845000D01*
X184005400Y-111298800D02*
X184005400Y-115719600D01*
X183201600Y-110495000D02*
X184005400Y-111298800D01*
X182545700Y-110495000D02*
X183201600Y-110495000D01*
X181753600Y-109702900D02*
X182545700Y-110495000D01*
X181753600Y-108741400D02*
X181753600Y-109702900D01*
X182558500Y-107936500D02*
X181753600Y-108741400D01*
X183254300Y-107936500D02*
X182558500Y-107936500D01*
X185176400Y-106014400D02*
X183254300Y-107936500D01*
X181610000Y-102448000D02*
X185176400Y-106014400D01*
X181610000Y-101207800D02*
X181610000Y-102448000D01*
X175507500Y-95105300D02*
X181610000Y-101207800D01*
X175260000Y-95105300D02*
X175507500Y-95105300D01*
X187256700Y-108094700D02*
X187960000Y-108094700D01*
X185176400Y-106014400D02*
X187256700Y-108094700D01*
X145578600Y-98443900D02*
X142240000Y-95105300D01*
X145578600Y-100474600D02*
X145578600Y-98443900D01*
X145963600Y-100859600D02*
X145578600Y-100474600D01*
X145963600Y-107619400D02*
X145963600Y-100859600D01*
X145483300Y-108099700D02*
X145963600Y-107619400D01*
X144780000Y-108099700D02*
X145483300Y-108099700D01*
X144780000Y-109225000D02*
X144780000Y-108099700D01*
X142240000Y-93980000D02*
X142240000Y-95105300D01*
X181465300Y-155241400D02*
X181465300Y-154960000D01*
X182309200Y-156085300D02*
X181465300Y-155241400D01*
X184400900Y-156085300D02*
X182309200Y-156085300D01*
X186730700Y-153755500D02*
X184400900Y-156085300D01*
X188259800Y-153755500D02*
X186730700Y-153755500D01*
X189654300Y-152361000D02*
X188259800Y-153755500D01*
X189654300Y-150485900D02*
X189654300Y-152361000D01*
X190010900Y-150129300D02*
X189654300Y-150485900D01*
X190010900Y-99050400D02*
X190010900Y-150129300D01*
X183780400Y-92819900D02*
X190010900Y-99050400D01*
X174724100Y-92819900D02*
X183780400Y-92819900D01*
X173845300Y-93698700D02*
X174724100Y-92819900D01*
X173845300Y-93980000D02*
X173845300Y-93698700D01*
X172720000Y-93980000D02*
X173845300Y-93980000D01*
X180340000Y-154960000D02*
X181465300Y-154960000D01*
X164188500Y-92351500D02*
X162560000Y-93980000D01*
X183948900Y-92351500D02*
X164188500Y-92351500D01*
X190461300Y-98863900D02*
X183948900Y-92351500D01*
X190461300Y-151088100D02*
X190461300Y-98863900D01*
X190441600Y-151107800D02*
X190461300Y-151088100D01*
X169881500Y-121626500D02*
X167640000Y-119385000D01*
X169881500Y-136389100D02*
X169881500Y-121626500D01*
X171594700Y-138102300D02*
X169881500Y-136389100D01*
X171594700Y-152709400D02*
X171594700Y-138102300D01*
X172720000Y-153834700D02*
X171594700Y-152709400D01*
X172720000Y-154960000D02*
X172720000Y-153834700D01*
X160301400Y-110350300D02*
X160020000Y-110350300D01*
X161145300Y-111194200D02*
X160301400Y-110350300D01*
X161145300Y-115637400D02*
X161145300Y-111194200D01*
X164780100Y-119272200D02*
X161145300Y-115637400D01*
X164780100Y-125811500D02*
X164780100Y-119272200D01*
X167243600Y-128275000D02*
X164780100Y-125811500D01*
X167967600Y-128275000D02*
X167243600Y-128275000D01*
X168765300Y-129072700D02*
X167967600Y-128275000D01*
X168765300Y-152420000D02*
X168765300Y-129072700D01*
X170180000Y-153834700D02*
X168765300Y-152420000D01*
X170180000Y-154960000D02*
X170180000Y-153834700D01*
X160020000Y-109225000D02*
X160020000Y-110350300D01*
X167640000Y-154960000D02*
X167640000Y-153834700D01*
X160020000Y-114305000D02*
X160020000Y-115430300D01*
X160301300Y-115430300D02*
X160020000Y-115430300D01*
X163692600Y-118821600D02*
X160301300Y-115430300D01*
X163692600Y-150375800D02*
X163692600Y-118821600D01*
X167151500Y-153834700D02*
X163692600Y-150375800D01*
X167640000Y-153834700D02*
X167151500Y-153834700D01*
X165100000Y-154960000D02*
X165100000Y-153834700D01*
X160020000Y-124465000D02*
X161145300Y-124465000D01*
X161145300Y-149880000D02*
X161145300Y-124465000D01*
X165100000Y-153834700D02*
X161145300Y-149880000D01*
X127000000Y-118442500D02*
X127000000Y-101600000D01*
X139367500Y-130810000D02*
X127000000Y-118442500D01*
X140016900Y-130810000D02*
X139367500Y-130810000D01*
X146050000Y-136843100D02*
X140016900Y-130810000D01*
X146050000Y-143810200D02*
X146050000Y-136843100D01*
X149310100Y-147070300D02*
X146050000Y-143810200D01*
X149310100Y-149763500D02*
X149310100Y-147070300D01*
X153670000Y-154123400D02*
X149310100Y-149763500D01*
X153670000Y-155330000D02*
X153670000Y-154123400D01*
X154432000Y-156092000D02*
X153670000Y-155330000D01*
X160584000Y-156092000D02*
X154432000Y-156092000D01*
X161434700Y-155241300D02*
X160584000Y-156092000D01*
X161434700Y-154960000D02*
X161434700Y-155241300D01*
X162560000Y-154960000D02*
X161434700Y-154960000D01*
X160020000Y-119385000D02*
X160020000Y-120510300D01*
X160020000Y-154960000D02*
X160020000Y-153834700D01*
X158894700Y-152709400D02*
X160020000Y-153834700D01*
X158894700Y-138660500D02*
X158894700Y-152709400D01*
X158444400Y-138210200D02*
X158894700Y-138660500D01*
X158444400Y-121804600D02*
X158444400Y-138210200D01*
X159738700Y-120510300D02*
X158444400Y-121804600D01*
X160020000Y-120510300D02*
X159738700Y-120510300D01*
X152129100Y-151023800D02*
X152129100Y-141677300D01*
X154940000Y-153834700D02*
X152129100Y-151023800D01*
X154940000Y-154960000D02*
X154940000Y-153834700D01*
X151270700Y-140818900D02*
X152129100Y-141677300D01*
X151270700Y-131799600D02*
X151270700Y-140818900D01*
X152400000Y-130670300D02*
X151270700Y-131799600D01*
X152400000Y-129545000D02*
X152400000Y-130670300D01*
X152400000Y-154960000D02*
X151274700Y-154960000D01*
X151274700Y-155241300D02*
X151274700Y-154960000D01*
X149523300Y-156992700D02*
X151274700Y-155241300D01*
X143902600Y-156992700D02*
X149523300Y-156992700D01*
X141870700Y-154960800D02*
X143902600Y-156992700D01*
X141870700Y-142719700D02*
X141870700Y-154960800D01*
X139976300Y-140825300D02*
X141870700Y-142719700D01*
X139695000Y-140825300D02*
X139976300Y-140825300D01*
X139695000Y-139700000D02*
X139695000Y-140825300D01*
X148734700Y-155241300D02*
X148734700Y-154960000D01*
X147433600Y-156542400D02*
X148734700Y-155241300D01*
X144089200Y-156542400D02*
X147433600Y-156542400D01*
X142438300Y-154891500D02*
X144089200Y-156542400D01*
X142438300Y-140817600D02*
X142438300Y-154891500D01*
X139906000Y-138285300D02*
X142438300Y-140817600D01*
X139695000Y-138285300D02*
X139906000Y-138285300D01*
X139695000Y-137160000D02*
X139695000Y-138285300D01*
X149860000Y-154960000D02*
X148734700Y-154960000D01*
X146194700Y-155241400D02*
X146194700Y-154960000D01*
X145350800Y-156085300D02*
X146194700Y-155241400D01*
X144269000Y-156085300D02*
X145350800Y-156085300D01*
X143006300Y-154822600D02*
X144269000Y-156085300D01*
X143006300Y-138775300D02*
X143006300Y-154822600D01*
X139976300Y-135745300D02*
X143006300Y-138775300D01*
X139695000Y-135745300D02*
X139976300Y-135745300D01*
X139695000Y-134620000D02*
X139695000Y-135745300D01*
X147320000Y-154960000D02*
X146194700Y-154960000D01*
X139695000Y-132080000D02*
X139695000Y-133205300D01*
X144780000Y-154960000D02*
X144780000Y-153834700D01*
X143654700Y-152709400D02*
X144780000Y-153834700D01*
X143654700Y-136883600D02*
X143654700Y-152709400D01*
X139976400Y-133205300D02*
X143654700Y-136883600D01*
X139695000Y-133205300D02*
X139976400Y-133205300D01*
X139695000Y-129540000D02*
X140820300Y-129540000D01*
X147320000Y-136039700D02*
X147320000Y-139720000D01*
X140820300Y-129540000D02*
X147320000Y-136039700D01*
X140820300Y-126718700D02*
X140820300Y-127000000D01*
X144344000Y-123195000D02*
X140820300Y-126718700D01*
X145103200Y-123195000D02*
X144344000Y-123195000D01*
X151274700Y-117023500D02*
X145103200Y-123195000D01*
X151274700Y-116274200D02*
X151274700Y-117023500D01*
X152118600Y-115430300D02*
X151274700Y-116274200D01*
X152400000Y-115430300D02*
X152118600Y-115430300D01*
X152400000Y-114305000D02*
X152400000Y-115430300D01*
X139695000Y-127000000D02*
X140257700Y-127000000D01*
X140257700Y-127000000D02*
X140820300Y-127000000D01*
X149860000Y-136602300D02*
X149860000Y-139720000D01*
X140257700Y-127000000D02*
X149860000Y-136602300D01*
X152400000Y-111765000D02*
X152400000Y-112327600D01*
X139695000Y-124460000D02*
X140820300Y-124460000D01*
X152400000Y-131626700D02*
X152400000Y-139720000D01*
X153531200Y-130495500D02*
X152400000Y-131626700D01*
X153531200Y-113754000D02*
X153531200Y-130495500D01*
X152428500Y-112651300D02*
X153531200Y-113754000D01*
X152428500Y-112356100D02*
X152428500Y-112651300D01*
X152400000Y-112327600D02*
X152428500Y-112356100D01*
X140820300Y-124178700D02*
X140820300Y-124460000D01*
X144344000Y-120655000D02*
X140820300Y-124178700D01*
X145167100Y-120655000D02*
X144344000Y-120655000D01*
X146279300Y-119542800D02*
X145167100Y-120655000D01*
X146279300Y-118800500D02*
X146279300Y-119542800D01*
X152428500Y-112651300D02*
X146279300Y-118800500D01*
X154940000Y-107404600D02*
X154940000Y-139720000D01*
X154341800Y-106806400D02*
X154940000Y-107404600D01*
X157480000Y-139720000D02*
X157480000Y-138594700D01*
X175260000Y-114305000D02*
X175260000Y-113179700D01*
X124455000Y-129540000D02*
X124455000Y-128414700D01*
X163830000Y-94310200D02*
X157368500Y-100771700D01*
X163830000Y-93641100D02*
X163830000Y-94310200D01*
X164646000Y-92825100D02*
X163830000Y-93641100D01*
X168096500Y-92825100D02*
X164646000Y-92825100D01*
X168765400Y-93494000D02*
X168096500Y-92825100D01*
X168765400Y-96977500D02*
X168765400Y-93494000D01*
X171450000Y-99662100D02*
X168765400Y-96977500D01*
X171450000Y-101959100D02*
X171450000Y-99662100D01*
X174974500Y-105483600D02*
X171450000Y-101959100D01*
X176120800Y-105483600D02*
X174974500Y-105483600D01*
X176385300Y-105748100D02*
X176120800Y-105483600D01*
X176385300Y-112247200D02*
X176385300Y-105748100D01*
X175452800Y-113179700D02*
X176385300Y-112247200D01*
X175260000Y-113179700D02*
X175452800Y-113179700D01*
X152279600Y-95682900D02*
X157368500Y-100771700D01*
X146919800Y-95682900D02*
X152279600Y-95682900D01*
X145946200Y-94709300D02*
X146919800Y-95682900D01*
X145946200Y-93505700D02*
X145946200Y-94709300D01*
X144796400Y-92355900D02*
X145946200Y-93505700D01*
X124479100Y-92355900D02*
X144796400Y-92355900D01*
X122847000Y-93988000D02*
X124479100Y-92355900D01*
X122847000Y-127088000D02*
X122847000Y-93988000D01*
X124173700Y-128414700D02*
X122847000Y-127088000D01*
X124455000Y-128414700D02*
X124173700Y-128414700D01*
X157480000Y-100883300D02*
X157480000Y-138594700D01*
X157368500Y-100771700D02*
X157480000Y-100883300D01*
X160280700Y-123307700D02*
X162933400Y-120655000D01*
X159579800Y-123307700D02*
X160280700Y-123307700D01*
X158894700Y-123992800D02*
X159579800Y-123307700D01*
X158894700Y-130763900D02*
X158894700Y-123992800D01*
X160020000Y-131889200D02*
X158894700Y-130763900D01*
X160020000Y-139720000D02*
X160020000Y-131889200D01*
X144906800Y-137099600D02*
X144991600Y-137099600D01*
X141249400Y-133442200D02*
X144906800Y-137099600D01*
X173759100Y-125965900D02*
X173759100Y-127836400D01*
X175260000Y-124465000D02*
X173759100Y-125965900D01*
X164642500Y-141302800D02*
X165100000Y-140845300D01*
X164642500Y-150299600D02*
X164642500Y-141302800D01*
X182880000Y-114305000D02*
X182880000Y-115430300D01*
X165100000Y-139720000D02*
X165100000Y-140845300D01*
X182598700Y-115430300D02*
X182880000Y-115430300D01*
X179037100Y-118991900D02*
X182598700Y-115430300D01*
X179037100Y-124887800D02*
X179037100Y-118991900D01*
X175538500Y-128386400D02*
X179037100Y-124887800D01*
X174787700Y-128386400D02*
X175538500Y-128386400D01*
X173877200Y-129296900D02*
X174787700Y-128386400D01*
X173877200Y-130308600D02*
X173877200Y-129296900D01*
X131653600Y-139700000D02*
X133070900Y-138282700D01*
X124455000Y-139700000D02*
X131653600Y-139700000D01*
X176293600Y-132614800D02*
X176293600Y-132724900D01*
X181024500Y-127883900D02*
X176293600Y-132614800D01*
X181024500Y-121240500D02*
X181024500Y-127883900D01*
X182880000Y-119385000D02*
X181024500Y-121240500D01*
X181474900Y-125870100D02*
X182880000Y-124465000D01*
X181474900Y-128459200D02*
X181474900Y-125870100D01*
X178032600Y-131901500D02*
X181474900Y-128459200D01*
X167640000Y-114305000D02*
X167640000Y-115430300D01*
X175260000Y-139720000D02*
X175260000Y-138594700D01*
X148473800Y-149983200D02*
X148473800Y-148434800D01*
X146057000Y-152400000D02*
X148473800Y-149983200D01*
X167921500Y-115430300D02*
X167640000Y-115430300D01*
X170782200Y-118291000D02*
X167921500Y-115430300D01*
X170782200Y-133335900D02*
X170782200Y-118291000D01*
X175260000Y-137813700D02*
X170782200Y-133335900D01*
X175260000Y-138594700D02*
X175260000Y-137813700D01*
X180340000Y-93980000D02*
X181465300Y-93980000D01*
X177800000Y-139720000D02*
X177800000Y-140845300D01*
X180387500Y-143432800D02*
X177800000Y-140845300D01*
X188387200Y-143432800D02*
X180387500Y-143432800D01*
X189544800Y-142275200D02*
X188387200Y-143432800D01*
X189544800Y-102476600D02*
X189544800Y-142275200D01*
X182173500Y-95105300D02*
X189544800Y-102476600D01*
X181907800Y-95105300D02*
X182173500Y-95105300D01*
X181465300Y-94662800D02*
X181907800Y-95105300D01*
X181465300Y-93980000D02*
X181465300Y-94662800D01*
X170180000Y-93980000D02*
X170180000Y-95105300D01*
X180340000Y-139720000D02*
X180340000Y-138594700D01*
X170461300Y-95105300D02*
X170180000Y-95105300D01*
X176530000Y-101174000D02*
X170461300Y-95105300D01*
X176530000Y-102725400D02*
X176530000Y-101174000D01*
X177349600Y-103545000D02*
X176530000Y-102725400D01*
X177349600Y-121477800D02*
X177349600Y-103545000D01*
X175632400Y-123195000D02*
X177349600Y-121477800D01*
X174918800Y-123195000D02*
X175632400Y-123195000D01*
X173033700Y-125080100D02*
X174918800Y-123195000D01*
X173033700Y-130545600D02*
X173033700Y-125080100D01*
X180340000Y-137851900D02*
X173033700Y-130545600D01*
X180340000Y-138594700D02*
X180340000Y-137851900D01*
X162560000Y-101600000D02*
X163685300Y-101600000D01*
X182880000Y-139720000D02*
X181754700Y-139720000D01*
X163685300Y-101881400D02*
X163685300Y-101600000D01*
X164529200Y-102725300D02*
X163685300Y-101881400D01*
X165365100Y-102725300D02*
X164529200Y-102725300D01*
X171459400Y-108819600D02*
X165365100Y-102725300D01*
X171459400Y-110349600D02*
X171459400Y-108819600D01*
X171682800Y-110573000D02*
X171459400Y-110349600D01*
X171682800Y-131983900D02*
X171682800Y-110573000D01*
X179070000Y-139371100D02*
X171682800Y-131983900D01*
X179070000Y-140060300D02*
X179070000Y-139371100D01*
X179855000Y-140845300D02*
X179070000Y-140060300D01*
X180910800Y-140845300D02*
X179855000Y-140845300D01*
X181754700Y-140001400D02*
X180910800Y-140845300D01*
X181754700Y-139720000D02*
X181754700Y-140001400D01*
X211187400Y-153764700D02*
X210820000Y-153764700D01*
X211995300Y-152956800D02*
X211187400Y-153764700D01*
X211995300Y-139510600D02*
X211995300Y-152956800D01*
X210820000Y-138335300D02*
X211995300Y-139510600D01*
X210820000Y-137160000D02*
X210820000Y-138335300D01*
X210820000Y-154940000D02*
X210820000Y-153764700D01*
X210820000Y-134620000D02*
X210820000Y-135795300D01*
X205740000Y-142240000D02*
X205740000Y-141114700D01*
X210452600Y-135795300D02*
X210820000Y-135795300D01*
X207051900Y-139196000D02*
X210452600Y-135795300D01*
X207051900Y-140084200D02*
X207051900Y-139196000D01*
X206021400Y-141114700D02*
X207051900Y-140084200D01*
X205740000Y-141114700D02*
X206021400Y-141114700D01*
X205740000Y-129540000D02*
X205740000Y-128414700D01*
X210820000Y-106680000D02*
X210820000Y-107855300D01*
X206021400Y-128414700D02*
X205740000Y-128414700D01*
X209194400Y-125241700D02*
X206021400Y-128414700D01*
X209194400Y-109480900D02*
X209194400Y-125241700D01*
X210820000Y-107855300D02*
X209194400Y-109480900D01*
X210452700Y-105315300D02*
X210820000Y-105315300D01*
X208320900Y-107447100D02*
X210452700Y-105315300D01*
X208320900Y-123575100D02*
X208320900Y-107447100D01*
X206021300Y-125874700D02*
X208320900Y-123575100D01*
X205740000Y-125874700D02*
X206021300Y-125874700D01*
X205740000Y-127000000D02*
X205740000Y-125874700D01*
X210820000Y-104140000D02*
X210820000Y-105315300D01*
X206865300Y-99110000D02*
X210820000Y-95155300D01*
X206865300Y-119950800D02*
X206865300Y-99110000D01*
X206021400Y-120794700D02*
X206865300Y-119950800D01*
X205740000Y-120794700D02*
X206021400Y-120794700D01*
X205740000Y-121920000D02*
X205740000Y-120794700D01*
X210820000Y-93980000D02*
X210820000Y-95155300D01*
D20*
X146304000Y-97493000D02*
X147320000Y-97493000D01*
D21*
X182879971Y-99568000D02*
X182879971Y-101600000D01*
X147320000Y-99568000D02*
X147320000Y-101600000D01*
X180848000Y-106685000D02*
X182880000Y-106685000D01*
X150368000Y-106685000D02*
X152400000Y-106685000D01*
X182880000Y-152908000D02*
X182880000Y-154960000D01*
X182880000Y-152908000D02*
X181864000Y-152908000D01*
X181863971Y-99568000D02*
X182879971Y-99568000D01*
X126487000Y-124460000D02*
X124455000Y-124460000D01*
X165608000Y-107701000D02*
X165608000Y-106685000D01*
X165608000Y-106685000D02*
X167640000Y-106685000D01*
X203454000Y-116840000D02*
X205740000Y-116840000D01*
X203454000Y-116840000D02*
X202438000Y-116840000D01*
X126487000Y-124460000D02*
X126487000Y-125476000D01*
X150368000Y-106685000D02*
X150368000Y-107701000D01*
X180848000Y-107701000D02*
X180848000Y-106685000D01*
X181864000Y-150833000D02*
X182880000Y-150833000D01*
X203454000Y-114765000D02*
X203454000Y-114046000D01*
X203454000Y-114765000D02*
X202438000Y-114765000D01*
X178773000Y-107701000D02*
X178773000Y-106685000D01*
X203454000Y-114046000D02*
X205740000Y-111760000D01*
X148293000Y-107701000D02*
X148293000Y-106685000D01*
X128562000Y-124460000D02*
X128519000Y-125476000D01*
X181863971Y-97493000D02*
X182879971Y-97493000D01*
X163533000Y-107701000D02*
X163533000Y-106685000D01*
M02*
