G04 #@! TF.GenerationSoftware,KiCad,Pcbnew,6.0.5-a6ca702e91~116~ubuntu20.04.1*
G04 #@! TF.CreationDate,2022-05-31T07:59:30+02:00*
G04 #@! TF.ProjectId,PZ1_Pico,505a315f-5069-4636-9f2e-6b696361645f,rev?*
G04 #@! TF.SameCoordinates,Original*
G04 #@! TF.FileFunction,Legend,Bot*
G04 #@! TF.FilePolarity,Positive*
%FSLAX46Y46*%
G04 Gerber Fmt 4.6, Leading zero omitted, Abs format (unit mm)*
G04 Created by KiCad (PCBNEW 6.0.5-a6ca702e91~116~ubuntu20.04.1) date 2022-05-31 07:59:30*
%MOMM*%
%LPD*%
G01*
G04 APERTURE LIST*
G04 Aperture macros list*
%AMRoundRect*
0 Rectangle with rounded corners*
0 $1 Rounding radius*
0 $2 $3 $4 $5 $6 $7 $8 $9 X,Y pos of 4 corners*
0 Add a 4 corners polygon primitive as box body*
4,1,4,$2,$3,$4,$5,$6,$7,$8,$9,$2,$3,0*
0 Add four circle primitives for the rounded corners*
1,1,$1+$1,$2,$3*
1,1,$1+$1,$4,$5*
1,1,$1+$1,$6,$7*
1,1,$1+$1,$8,$9*
0 Add four rect primitives between the rounded corners*
20,1,$1+$1,$2,$3,$4,$5,0*
20,1,$1+$1,$4,$5,$6,$7,0*
20,1,$1+$1,$6,$7,$8,$9,0*
20,1,$1+$1,$8,$9,$2,$3,0*%
G04 Aperture macros list end*
%ADD10C,0.150000*%
%ADD11C,0.120000*%
%ADD12R,1.600000X1.600000*%
%ADD13O,1.600000X1.600000*%
%ADD14R,1.700000X1.700000*%
%ADD15O,1.700000X1.700000*%
%ADD16RoundRect,0.250000X0.337500X0.475000X-0.337500X0.475000X-0.337500X-0.475000X0.337500X-0.475000X0*%
%ADD17RoundRect,0.250000X0.475000X-0.337500X0.475000X0.337500X-0.475000X0.337500X-0.475000X-0.337500X0*%
%ADD18RoundRect,0.250000X-0.475000X0.337500X-0.475000X-0.337500X0.475000X-0.337500X0.475000X0.337500X0*%
%ADD19RoundRect,0.250000X-0.337500X-0.475000X0.337500X-0.475000X0.337500X0.475000X-0.337500X0.475000X0*%
G04 APERTURE END LIST*
D10*
X179977166Y-105362142D02*
X180024785Y-105409761D01*
X180167642Y-105457380D01*
X180262880Y-105457380D01*
X180405738Y-105409761D01*
X180500976Y-105314523D01*
X180548595Y-105219285D01*
X180596214Y-105028809D01*
X180596214Y-104885952D01*
X180548595Y-104695476D01*
X180500976Y-104600238D01*
X180405738Y-104505000D01*
X180262880Y-104457380D01*
X180167642Y-104457380D01*
X180024785Y-104505000D01*
X179977166Y-104552619D01*
X179120023Y-104790714D02*
X179120023Y-105457380D01*
X179358119Y-104409761D02*
X179596214Y-105124047D01*
X178977166Y-105124047D01*
X164737166Y-105362142D02*
X164784785Y-105409761D01*
X164927642Y-105457380D01*
X165022880Y-105457380D01*
X165165738Y-105409761D01*
X165260976Y-105314523D01*
X165308595Y-105219285D01*
X165356214Y-105028809D01*
X165356214Y-104885952D01*
X165308595Y-104695476D01*
X165260976Y-104600238D01*
X165165738Y-104505000D01*
X165022880Y-104457380D01*
X164927642Y-104457380D01*
X164784785Y-104505000D01*
X164737166Y-104552619D01*
X163832404Y-104457380D02*
X164308595Y-104457380D01*
X164356214Y-104933571D01*
X164308595Y-104885952D01*
X164213357Y-104838333D01*
X163975261Y-104838333D01*
X163880023Y-104885952D01*
X163832404Y-104933571D01*
X163784785Y-105028809D01*
X163784785Y-105266904D01*
X163832404Y-105362142D01*
X163880023Y-105409761D01*
X163975261Y-105457380D01*
X164213357Y-105457380D01*
X164308595Y-105409761D01*
X164356214Y-105362142D01*
X149497166Y-105362142D02*
X149544785Y-105409761D01*
X149687642Y-105457380D01*
X149782880Y-105457380D01*
X149925738Y-105409761D01*
X150020976Y-105314523D01*
X150068595Y-105219285D01*
X150116214Y-105028809D01*
X150116214Y-104885952D01*
X150068595Y-104695476D01*
X150020976Y-104600238D01*
X149925738Y-104505000D01*
X149782880Y-104457380D01*
X149687642Y-104457380D01*
X149544785Y-104505000D01*
X149497166Y-104552619D01*
X148640023Y-104457380D02*
X148830500Y-104457380D01*
X148925738Y-104505000D01*
X148973357Y-104552619D01*
X149068595Y-104695476D01*
X149116214Y-104885952D01*
X149116214Y-105266904D01*
X149068595Y-105362142D01*
X149020976Y-105409761D01*
X148925738Y-105457380D01*
X148735261Y-105457380D01*
X148640023Y-105409761D01*
X148592404Y-105362142D01*
X148544785Y-105266904D01*
X148544785Y-105028809D01*
X148592404Y-104933571D01*
X148640023Y-104885952D01*
X148735261Y-104838333D01*
X148925738Y-104838333D01*
X149020976Y-104885952D01*
X149068595Y-104933571D01*
X149116214Y-105028809D01*
X149357142Y-98363833D02*
X149404761Y-98316214D01*
X149452380Y-98173357D01*
X149452380Y-98078119D01*
X149404761Y-97935261D01*
X149309523Y-97840023D01*
X149214285Y-97792404D01*
X149023809Y-97744785D01*
X148880952Y-97744785D01*
X148690476Y-97792404D01*
X148595238Y-97840023D01*
X148500000Y-97935261D01*
X148452380Y-98078119D01*
X148452380Y-98173357D01*
X148500000Y-98316214D01*
X148547619Y-98363833D01*
X148452380Y-98697166D02*
X148452380Y-99316214D01*
X148833333Y-98982880D01*
X148833333Y-99125738D01*
X148880952Y-99220976D01*
X148928571Y-99268595D01*
X149023809Y-99316214D01*
X149261904Y-99316214D01*
X149357142Y-99268595D01*
X149404761Y-99220976D01*
X149452380Y-99125738D01*
X149452380Y-98840023D01*
X149404761Y-98744785D01*
X149357142Y-98697166D01*
X202131142Y-115635833D02*
X202178761Y-115588214D01*
X202226380Y-115445357D01*
X202226380Y-115350119D01*
X202178761Y-115207261D01*
X202083523Y-115112023D01*
X201988285Y-115064404D01*
X201797809Y-115016785D01*
X201654952Y-115016785D01*
X201464476Y-115064404D01*
X201369238Y-115112023D01*
X201274000Y-115207261D01*
X201226380Y-115350119D01*
X201226380Y-115445357D01*
X201274000Y-115588214D01*
X201321619Y-115635833D01*
X201654952Y-116207261D02*
X201607333Y-116112023D01*
X201559714Y-116064404D01*
X201464476Y-116016785D01*
X201416857Y-116016785D01*
X201321619Y-116064404D01*
X201274000Y-116112023D01*
X201226380Y-116207261D01*
X201226380Y-116397738D01*
X201274000Y-116492976D01*
X201321619Y-116540595D01*
X201416857Y-116588214D01*
X201464476Y-116588214D01*
X201559714Y-116540595D01*
X201607333Y-116492976D01*
X201654952Y-116397738D01*
X201654952Y-116207261D01*
X201702571Y-116112023D01*
X201750190Y-116064404D01*
X201845428Y-116016785D01*
X202035904Y-116016785D01*
X202131142Y-116064404D01*
X202178761Y-116112023D01*
X202226380Y-116207261D01*
X202226380Y-116397738D01*
X202178761Y-116492976D01*
X202131142Y-116540595D01*
X202035904Y-116588214D01*
X201845428Y-116588214D01*
X201750190Y-116540595D01*
X201702571Y-116492976D01*
X201654952Y-116397738D01*
X130485166Y-124817142D02*
X130532785Y-124864761D01*
X130675642Y-124912380D01*
X130770880Y-124912380D01*
X130913738Y-124864761D01*
X131008976Y-124769523D01*
X131056595Y-124674285D01*
X131104214Y-124483809D01*
X131104214Y-124340952D01*
X131056595Y-124150476D01*
X131008976Y-124055238D01*
X130913738Y-123960000D01*
X130770880Y-123912380D01*
X130675642Y-123912380D01*
X130532785Y-123960000D01*
X130485166Y-124007619D01*
X129532785Y-124912380D02*
X130104214Y-124912380D01*
X129818500Y-124912380D02*
X129818500Y-123912380D01*
X129913738Y-124055238D01*
X130008976Y-124150476D01*
X130104214Y-124198095D01*
X184917142Y-151703833D02*
X184964761Y-151656214D01*
X185012380Y-151513357D01*
X185012380Y-151418119D01*
X184964761Y-151275261D01*
X184869523Y-151180023D01*
X184774285Y-151132404D01*
X184583809Y-151084785D01*
X184440952Y-151084785D01*
X184250476Y-151132404D01*
X184155238Y-151180023D01*
X184060000Y-151275261D01*
X184012380Y-151418119D01*
X184012380Y-151513357D01*
X184060000Y-151656214D01*
X184107619Y-151703833D01*
X184107619Y-152084785D02*
X184060000Y-152132404D01*
X184012380Y-152227642D01*
X184012380Y-152465738D01*
X184060000Y-152560976D01*
X184107619Y-152608595D01*
X184202857Y-152656214D01*
X184298095Y-152656214D01*
X184440952Y-152608595D01*
X185012380Y-152037166D01*
X185012380Y-152656214D01*
X184917142Y-98363833D02*
X184964761Y-98316214D01*
X185012380Y-98173357D01*
X185012380Y-98078119D01*
X184964761Y-97935261D01*
X184869523Y-97840023D01*
X184774285Y-97792404D01*
X184583809Y-97744785D01*
X184440952Y-97744785D01*
X184250476Y-97792404D01*
X184155238Y-97840023D01*
X184060000Y-97935261D01*
X184012380Y-98078119D01*
X184012380Y-98173357D01*
X184060000Y-98316214D01*
X184107619Y-98363833D01*
X184012380Y-98697166D02*
X184012380Y-99363833D01*
X185012380Y-98935261D01*
D11*
X180071752Y-107420000D02*
X179549248Y-107420000D01*
X180071752Y-105950000D02*
X179549248Y-105950000D01*
X164831752Y-105950000D02*
X164309248Y-105950000D01*
X164831752Y-107420000D02*
X164309248Y-107420000D01*
X149591752Y-107420000D02*
X149069248Y-107420000D01*
X149591752Y-105950000D02*
X149069248Y-105950000D01*
X148055000Y-98791752D02*
X148055000Y-98269248D01*
X146585000Y-98791752D02*
X146585000Y-98269248D01*
X204189000Y-115541248D02*
X204189000Y-116063752D01*
X202719000Y-115541248D02*
X202719000Y-116063752D01*
X127263248Y-123725000D02*
X127785752Y-123725000D01*
X127263248Y-125195000D02*
X127785752Y-125195000D01*
X182145000Y-152131752D02*
X182145000Y-151609248D01*
X183615000Y-152131752D02*
X183615000Y-151609248D01*
X183615000Y-98791752D02*
X183615000Y-98269248D01*
X182145000Y-98791752D02*
X182145000Y-98269248D01*
%LPC*%
D12*
X147320000Y-93980000D03*
D13*
X144780000Y-93980000D03*
X142240000Y-93980000D03*
X139700000Y-93980000D03*
X137160000Y-93980000D03*
X134620000Y-93980000D03*
X132080000Y-93980000D03*
X129540000Y-93980000D03*
X127000000Y-93980000D03*
X124460000Y-93980000D03*
X124460000Y-101600000D03*
X127000000Y-101600000D03*
X129540000Y-101600000D03*
X132080000Y-101600000D03*
X134620000Y-101600000D03*
X137160000Y-101600000D03*
X139700000Y-101600000D03*
X142240000Y-101600000D03*
X144780000Y-101600000D03*
X147320000Y-101600000D03*
D12*
X175260000Y-106685000D03*
D13*
X175260000Y-109225000D03*
X175260000Y-111765000D03*
X175260000Y-114305000D03*
X175260000Y-116845000D03*
X175260000Y-119385000D03*
X175260000Y-121925000D03*
X175260000Y-124465000D03*
X175260000Y-127005000D03*
X175260000Y-129545000D03*
X182880000Y-129545000D03*
X182880000Y-127005000D03*
X182880000Y-124465000D03*
X182880000Y-121925000D03*
X182880000Y-119385000D03*
X182880000Y-116845000D03*
X182880000Y-114305000D03*
X182880000Y-111765000D03*
X182880000Y-109225000D03*
X182880000Y-106685000D03*
D12*
X182880000Y-139720000D03*
D13*
X180340000Y-139720000D03*
X177800000Y-139720000D03*
X175260000Y-139720000D03*
X172720000Y-139720000D03*
X170180000Y-139720000D03*
X167640000Y-139720000D03*
X165100000Y-139720000D03*
X162560000Y-139720000D03*
X160020000Y-139720000D03*
X157480000Y-139720000D03*
X154940000Y-139720000D03*
X152400000Y-139720000D03*
X149860000Y-139720000D03*
X147320000Y-139720000D03*
X144780000Y-139720000D03*
X144780000Y-154960000D03*
X147320000Y-154960000D03*
X149860000Y-154960000D03*
X152400000Y-154960000D03*
X154940000Y-154960000D03*
X157480000Y-154960000D03*
X160020000Y-154960000D03*
X162560000Y-154960000D03*
X165100000Y-154960000D03*
X167640000Y-154960000D03*
X170180000Y-154960000D03*
X172720000Y-154960000D03*
X175260000Y-154960000D03*
X177800000Y-154960000D03*
X180340000Y-154960000D03*
X182880000Y-154960000D03*
D12*
X160020000Y-106685000D03*
D13*
X160020000Y-109225000D03*
X160020000Y-111765000D03*
X160020000Y-114305000D03*
X160020000Y-116845000D03*
X160020000Y-119385000D03*
X160020000Y-121925000D03*
X160020000Y-124465000D03*
X160020000Y-127005000D03*
X160020000Y-129545000D03*
X167640000Y-129545000D03*
X167640000Y-127005000D03*
X167640000Y-124465000D03*
X167640000Y-121925000D03*
X167640000Y-119385000D03*
X167640000Y-116845000D03*
X167640000Y-114305000D03*
X167640000Y-111765000D03*
X167640000Y-109225000D03*
X167640000Y-106685000D03*
D14*
X210820000Y-111760000D03*
D15*
X210820000Y-114300000D03*
X210820000Y-116840000D03*
X210820000Y-119380000D03*
D12*
X124455000Y-106680000D03*
D13*
X124455000Y-109220000D03*
X124455000Y-111760000D03*
X124455000Y-114300000D03*
X124455000Y-116840000D03*
X124455000Y-119380000D03*
X124455000Y-121920000D03*
X124455000Y-124460000D03*
X124455000Y-127000000D03*
X124455000Y-129540000D03*
X124455000Y-132080000D03*
X124455000Y-134620000D03*
X124455000Y-137160000D03*
X124455000Y-139700000D03*
X124455000Y-142240000D03*
X124455000Y-144780000D03*
X124455000Y-147320000D03*
X124455000Y-149860000D03*
X124455000Y-152400000D03*
X124455000Y-154940000D03*
X139695000Y-154940000D03*
X139695000Y-152400000D03*
X139695000Y-149860000D03*
X139695000Y-147320000D03*
X139695000Y-144780000D03*
X139695000Y-142240000D03*
X139695000Y-139700000D03*
X139695000Y-137160000D03*
X139695000Y-134620000D03*
X139695000Y-132080000D03*
X139695000Y-129540000D03*
X139695000Y-127000000D03*
X139695000Y-124460000D03*
X139695000Y-121920000D03*
X139695000Y-119380000D03*
X139695000Y-116840000D03*
X139695000Y-114300000D03*
X139695000Y-111760000D03*
X139695000Y-109220000D03*
X139695000Y-106680000D03*
D14*
X210820000Y-142240000D03*
D15*
X210820000Y-144780000D03*
X210820000Y-147320000D03*
X210820000Y-149860000D03*
X210820000Y-152400000D03*
X210820000Y-154940000D03*
D14*
X210820000Y-99060000D03*
D15*
X210820000Y-101600000D03*
X210820000Y-104140000D03*
X210820000Y-106680000D03*
D14*
X210820000Y-91440000D03*
D15*
X210820000Y-93980000D03*
D12*
X187960000Y-106680000D03*
D13*
X187960000Y-109220000D03*
X187960000Y-111760000D03*
X187960000Y-114300000D03*
X187960000Y-116840000D03*
X187960000Y-119380000D03*
X187960000Y-121920000D03*
X187960000Y-124460000D03*
X187960000Y-127000000D03*
X187960000Y-129540000D03*
X187960000Y-132080000D03*
X187960000Y-134620000D03*
X187960000Y-137160000D03*
X187960000Y-139700000D03*
X187960000Y-142240000D03*
X187960000Y-144780000D03*
X187960000Y-147320000D03*
X187960000Y-149860000D03*
X187960000Y-152400000D03*
X187960000Y-154940000D03*
X205740000Y-154940000D03*
X205740000Y-152400000D03*
X205740000Y-149860000D03*
X205740000Y-147320000D03*
X205740000Y-144780000D03*
X205740000Y-142240000D03*
X205740000Y-139700000D03*
X205740000Y-137160000D03*
X205740000Y-134620000D03*
X205740000Y-132080000D03*
X205740000Y-129540000D03*
X205740000Y-127000000D03*
X205740000Y-124460000D03*
X205740000Y-121920000D03*
X205740000Y-119380000D03*
X205740000Y-116840000D03*
X205740000Y-114300000D03*
X205740000Y-111760000D03*
X205740000Y-109220000D03*
X205740000Y-106680000D03*
D14*
X210820000Y-124460000D03*
D15*
X210820000Y-127000000D03*
X210820000Y-129540000D03*
X210820000Y-132080000D03*
X210820000Y-134620000D03*
X210820000Y-137160000D03*
D12*
X182880000Y-93980000D03*
D13*
X180340000Y-93980000D03*
X177800000Y-93980000D03*
X175260000Y-93980000D03*
X172720000Y-93980000D03*
X170180000Y-93980000D03*
X167640000Y-93980000D03*
X165100000Y-93980000D03*
X162560000Y-93980000D03*
X160020000Y-93980000D03*
X160020000Y-101600000D03*
X162560000Y-101600000D03*
X165100000Y-101600000D03*
X167640000Y-101600000D03*
X170180000Y-101600000D03*
X172720000Y-101600000D03*
X175260000Y-101600000D03*
X177800000Y-101600000D03*
X180340000Y-101600000D03*
X182880000Y-101600000D03*
D12*
X144780000Y-106685000D03*
D13*
X144780000Y-109225000D03*
X144780000Y-111765000D03*
X144780000Y-114305000D03*
X144780000Y-116845000D03*
X144780000Y-119385000D03*
X144780000Y-121925000D03*
X144780000Y-124465000D03*
X144780000Y-127005000D03*
X144780000Y-129545000D03*
X152400000Y-129545000D03*
X152400000Y-127005000D03*
X152400000Y-124465000D03*
X152400000Y-121925000D03*
X152400000Y-119385000D03*
X152400000Y-116845000D03*
X152400000Y-114305000D03*
X152400000Y-111765000D03*
X152400000Y-109225000D03*
X152400000Y-106685000D03*
D16*
X180848000Y-106685000D03*
X178773000Y-106685000D03*
X165608000Y-106685000D03*
X163533000Y-106685000D03*
X150368000Y-106685000D03*
X148293000Y-106685000D03*
D17*
X147320000Y-99568000D03*
X147320000Y-97493000D03*
D18*
X203454000Y-114765000D03*
X203454000Y-116840000D03*
D19*
X126487000Y-124460000D03*
X128562000Y-124460000D03*
D17*
X182880000Y-152908000D03*
X182880000Y-150833000D03*
X182880000Y-99568000D03*
X182880000Y-97493000D03*
M02*
