M48
; DRILL file {KiCad 6.0.5-a6ca702e91~116~ubuntu20.04.1} date Tue 31 May 2022 08:00:04 AM CEST
; FORMAT={-:-/ absolute / metric / decimal}
; #@! TF.CreationDate,2022-05-31T08:00:04+02:00
; #@! TF.GenerationSoftware,Kicad,Pcbnew,6.0.5-a6ca702e91~116~ubuntu20.04.1
; #@! TF.FileFunction,Plated,1,4,PTH
FMAT,2
METRIC
; #@! TA.AperFunction,Plated,PTH,ViaDrill
T1C0.400
; #@! TA.AperFunction,Plated,PTH,ComponentDrill
T2C0.800
; #@! TA.AperFunction,Plated,PTH,ComponentDrill
T3C1.000
%
G90
G05
T1
X126.487Y-125.476
X128.519Y-125.476
X132.617Y-121.92
X133.071Y-138.283
X141.249Y-133.442
X144.992Y-137.1
X146.057Y-152.4
X146.304Y-97.493
X146.304Y-99.568
X147.856Y-112.89
X148.293Y-107.701
X148.474Y-148.435
X150.368Y-107.701
X151.311Y-147.555
X152.129Y-141.677
X154.332Y-148.28
X154.342Y-106.806
X154.473Y-145.641
X156.584Y-122.958
X162.933Y-120.655
X163.533Y-107.701
X164.642Y-150.3
X165.608Y-107.701
X165.998Y-138.551
X172.185Y-110.049
X173.759Y-127.836
X173.877Y-130.309
X176.294Y-132.725
X177.63Y-136.475
X178.033Y-131.901
X178.773Y-107.701
X180.848Y-107.701
X181.864Y-97.493
X181.864Y-99.568
X181.864Y-150.833
X181.864Y-152.908
X190.442Y-151.108
X202.438Y-114.765
X202.438Y-116.84
T2
X124.455Y-106.68
X124.455Y-109.22
X124.455Y-111.76
X124.455Y-114.3
X124.455Y-116.84
X124.455Y-119.38
X124.455Y-121.92
X124.455Y-124.46
X124.455Y-127.0
X124.455Y-129.54
X124.455Y-132.08
X124.455Y-134.62
X124.455Y-137.16
X124.455Y-139.7
X124.455Y-142.24
X124.455Y-144.78
X124.455Y-147.32
X124.455Y-149.86
X124.455Y-152.4
X124.455Y-154.94
X124.46Y-93.98
X124.46Y-101.6
X127.0Y-93.98
X127.0Y-101.6
X129.54Y-93.98
X129.54Y-101.6
X132.08Y-93.98
X132.08Y-101.6
X134.62Y-93.98
X134.62Y-101.6
X137.16Y-93.98
X137.16Y-101.6
X139.695Y-106.68
X139.695Y-109.22
X139.695Y-111.76
X139.695Y-114.3
X139.695Y-116.84
X139.695Y-119.38
X139.695Y-121.92
X139.695Y-124.46
X139.695Y-127.0
X139.695Y-129.54
X139.695Y-132.08
X139.695Y-134.62
X139.695Y-137.16
X139.695Y-139.7
X139.695Y-142.24
X139.695Y-144.78
X139.695Y-147.32
X139.695Y-149.86
X139.695Y-152.4
X139.695Y-154.94
X139.7Y-93.98
X139.7Y-101.6
X142.24Y-93.98
X142.24Y-101.6
X144.78Y-93.98
X144.78Y-101.6
X144.78Y-106.685
X144.78Y-109.225
X144.78Y-111.765
X144.78Y-114.305
X144.78Y-116.845
X144.78Y-119.385
X144.78Y-121.925
X144.78Y-124.465
X144.78Y-127.005
X144.78Y-129.545
X144.78Y-139.72
X144.78Y-154.96
X147.32Y-93.98
X147.32Y-101.6
X147.32Y-139.72
X147.32Y-154.96
X149.86Y-139.72
X149.86Y-154.96
X152.4Y-106.685
X152.4Y-109.225
X152.4Y-111.765
X152.4Y-114.305
X152.4Y-116.845
X152.4Y-119.385
X152.4Y-121.925
X152.4Y-124.465
X152.4Y-127.005
X152.4Y-129.545
X152.4Y-139.72
X152.4Y-154.96
X154.94Y-139.72
X154.94Y-154.96
X157.48Y-139.72
X157.48Y-154.96
X160.02Y-93.98
X160.02Y-101.6
X160.02Y-106.685
X160.02Y-109.225
X160.02Y-111.765
X160.02Y-114.305
X160.02Y-116.845
X160.02Y-119.385
X160.02Y-121.925
X160.02Y-124.465
X160.02Y-127.005
X160.02Y-129.545
X160.02Y-139.72
X160.02Y-154.96
X162.56Y-93.98
X162.56Y-101.6
X162.56Y-139.72
X162.56Y-154.96
X165.1Y-93.98
X165.1Y-101.6
X165.1Y-139.72
X165.1Y-154.96
X167.64Y-93.98
X167.64Y-101.6
X167.64Y-106.685
X167.64Y-109.225
X167.64Y-111.765
X167.64Y-114.305
X167.64Y-116.845
X167.64Y-119.385
X167.64Y-121.925
X167.64Y-124.465
X167.64Y-127.005
X167.64Y-129.545
X167.64Y-139.72
X167.64Y-154.96
X170.18Y-93.98
X170.18Y-101.6
X170.18Y-139.72
X170.18Y-154.96
X172.72Y-93.98
X172.72Y-101.6
X172.72Y-139.72
X172.72Y-154.96
X175.26Y-93.98
X175.26Y-101.6
X175.26Y-106.685
X175.26Y-109.225
X175.26Y-111.765
X175.26Y-114.305
X175.26Y-116.845
X175.26Y-119.385
X175.26Y-121.925
X175.26Y-124.465
X175.26Y-127.005
X175.26Y-129.545
X175.26Y-139.72
X175.26Y-154.96
X177.8Y-93.98
X177.8Y-101.6
X177.8Y-139.72
X177.8Y-154.96
X180.34Y-93.98
X180.34Y-101.6
X180.34Y-139.72
X180.34Y-154.96
X182.88Y-93.98
X182.88Y-101.6
X182.88Y-106.685
X182.88Y-109.225
X182.88Y-111.765
X182.88Y-114.305
X182.88Y-116.845
X182.88Y-119.385
X182.88Y-121.925
X182.88Y-124.465
X182.88Y-127.005
X182.88Y-129.545
X182.88Y-139.72
X182.88Y-154.96
X187.96Y-106.68
X187.96Y-109.22
X187.96Y-111.76
X187.96Y-114.3
X187.96Y-116.84
X187.96Y-119.38
X187.96Y-121.92
X187.96Y-124.46
X187.96Y-127.0
X187.96Y-129.54
X187.96Y-132.08
X187.96Y-134.62
X187.96Y-137.16
X187.96Y-139.7
X187.96Y-142.24
X187.96Y-144.78
X187.96Y-147.32
X187.96Y-149.86
X187.96Y-152.4
X187.96Y-154.94
X205.74Y-106.68
X205.74Y-109.22
X205.74Y-111.76
X205.74Y-114.3
X205.74Y-116.84
X205.74Y-119.38
X205.74Y-121.92
X205.74Y-124.46
X205.74Y-127.0
X205.74Y-129.54
X205.74Y-132.08
X205.74Y-134.62
X205.74Y-137.16
X205.74Y-139.7
X205.74Y-142.24
X205.74Y-144.78
X205.74Y-147.32
X205.74Y-149.86
X205.74Y-152.4
X205.74Y-154.94
T3
X210.82Y-91.44
X210.82Y-93.98
X210.82Y-99.06
X210.82Y-101.6
X210.82Y-104.14
X210.82Y-106.68
X210.82Y-111.76
X210.82Y-114.3
X210.82Y-116.84
X210.82Y-119.38
X210.82Y-124.46
X210.82Y-127.0
X210.82Y-129.54
X210.82Y-132.08
X210.82Y-134.62
X210.82Y-137.16
X210.82Y-142.24
X210.82Y-144.78
X210.82Y-147.32
X210.82Y-149.86
X210.82Y-152.4
X210.82Y-154.94
T0
M30
